<?xml version="1.0" encoding="utf-8" standalone="no"?>
<!DOCTYPE svg PUBLIC "-//W3C//DTD SVG 1.1//EN"
  "http://www.w3.org/Graphics/SVG/1.1/DTD/svg11.dtd">
<svg xmlns:xlink="http://www.w3.org/1999/xlink" width="594.660337pt" height="425.049687pt" viewBox="0 0 594.660337 425.049687" xmlns="http://www.w3.org/2000/svg" version="1.1">
 <metadata>
  <rdf:RDF xmlns:dc="http://purl.org/dc/elements/1.1/" xmlns:cc="http://creativecommons.org/ns#" xmlns:rdf="http://www.w3.org/1999/02/22-rdf-syntax-ns#">
   <cc:Work>
    <dc:type rdf:resource="http://purl.org/dc/dcmitype/StillImage"/>
    <dc:date>2025-08-03T16:59:27.813846</dc:date>
    <dc:format>image/svg+xml</dc:format>
    <dc:creator>
     <cc:Agent>
      <dc:title>Matplotlib v3.10.1, https://matplotlib.org/</dc:title>
     </cc:Agent>
    </dc:creator>
   </cc:Work>
  </rdf:RDF>
 </metadata>
 <defs>
  <style type="text/css">*{stroke-linejoin: round; stroke-linecap: butt}</style>
 </defs>
 <g id="figure_1">
  <g id="patch_1">
   <path d="M 0 425.049687
L 594.660337 425.049687
L 594.660337 0
L 0 0
z
" style="fill: #ffffff"/>
  </g>
  <g id="axes_1">
   <g id="patch_2">
    <path d="M 54.096563 385.557812
L 415.816563 385.557812
L 415.816563 23.837812
L 54.096563 23.837812
z
" style="fill: #ffffff"/>
   </g>
   <g id="patch_3">
    <path d="M 54.096563 385.557812
L 415.816563 385.557812
L 415.816563 23.837812
L 54.096563 23.837812
z
" clip-path="url(#pa4d2a1e41b)" style="fill: #8598e1"/>
   </g>
   <g id="patch_4">
    <path d="M 234.956563 204.697812
L 389.97942 204.697812
L 389.97942 49.674955
L 234.956563 49.674955
z
" clip-path="url(#pa4d2a1e41b)" style="fill: #ee6666"/>
   </g>
   <g id="patch_5">
    <path d="M 79.933705 359.72067
L 234.956563 359.72067
L 234.956563 204.697812
L 79.933705 204.697812
z
" clip-path="url(#pa4d2a1e41b)" style="fill: #ee6666"/>
   </g>
   <g id="patch_6">
    <path d="M 234.956563 230.534955
C 241.808653 230.534955 248.381022 227.812591 253.226181 222.967431
C 258.071341 218.122272 260.793705 211.549903 260.793705 204.697812
C 260.793705 197.845722 258.071341 191.273353 253.226181 186.428194
C 248.381022 181.583034 241.808653 178.86067 234.956563 178.86067
C 228.104472 178.86067 221.532103 181.583034 216.686944 186.428194
C 211.841784 191.273353 209.11942 197.845722 209.11942 204.697812
C 209.11942 211.549903 211.841784 218.122272 216.686944 222.967431
C 221.532103 227.812591 228.104472 230.534955 234.956563 230.534955
z
" clip-path="url(#pa4d2a1e41b)" style="fill: #88dd88"/>
   </g>
   <g id="patch_7">
    <path d="M 105.770848 333.883527
L 364.142277 333.883527
L 364.142277 75.512098
L 105.770848 75.512098
L 105.770848 333.883527
z
" clip-path="url(#pa4d2a1e41b)" style="fill: none; stroke: #000000; stroke-width: 2.5; stroke-linejoin: miter"/>
   </g>
   <g id="matplotlib.axis_1">
    <g id="xtick_1">
     <g id="line2d_1">
      <path d="M 54.096563 385.557812
L 54.096563 23.837812
" clip-path="url(#pa4d2a1e41b)" style="fill: none; stroke: #b0b0b0; stroke-opacity: 0.6; stroke-width: 1.2; stroke-linecap: square"/>
     </g>
     <g id="line2d_2">
      <defs>
       <path id="mf856bb228f" d="M 0 0
L 0 3.5
" style="stroke: #000000; stroke-width: 0.8"/>
      </defs>
      <g>
       <use xlink:href="#mf856bb228f" x="54.096563" y="385.557812" style="stroke: #000000; stroke-width: 0.8"/>
      </g>
     </g>
     <g id="text_1">
      <!-- −0.7 -->
      <g transform="translate(41.955156 400.15625) scale(0.1 -0.1)">
       <defs>
        <path id="DejaVuSans-2212" d="M 678 2272
L 4684 2272
L 4684 1741
L 678 1741
L 678 2272
z
" transform="scale(0.015625)"/>
        <path id="DejaVuSans-30" d="M 2034 4250
Q 1547 4250 1301 3770
Q 1056 3291 1056 2328
Q 1056 1369 1301 889
Q 1547 409 2034 409
Q 2525 409 2770 889
Q 3016 1369 3016 2328
Q 3016 3291 2770 3770
Q 2525 4250 2034 4250
z
M 2034 4750
Q 2819 4750 3233 4129
Q 3647 3509 3647 2328
Q 3647 1150 3233 529
Q 2819 -91 2034 -91
Q 1250 -91 836 529
Q 422 1150 422 2328
Q 422 3509 836 4129
Q 1250 4750 2034 4750
z
" transform="scale(0.015625)"/>
        <path id="DejaVuSans-2e" d="M 684 794
L 1344 794
L 1344 0
L 684 0
L 684 794
z
" transform="scale(0.015625)"/>
        <path id="DejaVuSans-37" d="M 525 4666
L 3525 4666
L 3525 4397
L 1831 0
L 1172 0
L 2766 4134
L 525 4134
L 525 4666
z
" transform="scale(0.015625)"/>
       </defs>
       <use xlink:href="#DejaVuSans-2212"/>
       <use xlink:href="#DejaVuSans-30" transform="translate(83.789062 0)"/>
       <use xlink:href="#DejaVuSans-2e" transform="translate(147.412109 0)"/>
       <use xlink:href="#DejaVuSans-37" transform="translate(179.199219 0)"/>
      </g>
     </g>
    </g>
    <g id="xtick_2">
     <g id="line2d_3">
      <path d="M 79.933705 385.557812
L 79.933705 23.837812
" clip-path="url(#pa4d2a1e41b)" style="fill: none; stroke: #b0b0b0; stroke-opacity: 0.6; stroke-width: 1.2; stroke-linecap: square"/>
     </g>
     <g id="line2d_4">
      <g>
       <use xlink:href="#mf856bb228f" x="79.933705" y="385.557812" style="stroke: #000000; stroke-width: 0.8"/>
      </g>
     </g>
     <g id="text_2">
      <!-- −0.6 -->
      <g transform="translate(67.792299 400.15625) scale(0.1 -0.1)">
       <defs>
        <path id="DejaVuSans-36" d="M 2113 2584
Q 1688 2584 1439 2293
Q 1191 2003 1191 1497
Q 1191 994 1439 701
Q 1688 409 2113 409
Q 2538 409 2786 701
Q 3034 994 3034 1497
Q 3034 2003 2786 2293
Q 2538 2584 2113 2584
z
M 3366 4563
L 3366 3988
Q 3128 4100 2886 4159
Q 2644 4219 2406 4219
Q 1781 4219 1451 3797
Q 1122 3375 1075 2522
Q 1259 2794 1537 2939
Q 1816 3084 2150 3084
Q 2853 3084 3261 2657
Q 3669 2231 3669 1497
Q 3669 778 3244 343
Q 2819 -91 2113 -91
Q 1303 -91 875 529
Q 447 1150 447 2328
Q 447 3434 972 4092
Q 1497 4750 2381 4750
Q 2619 4750 2861 4703
Q 3103 4656 3366 4563
z
" transform="scale(0.015625)"/>
       </defs>
       <use xlink:href="#DejaVuSans-2212"/>
       <use xlink:href="#DejaVuSans-30" transform="translate(83.789062 0)"/>
       <use xlink:href="#DejaVuSans-2e" transform="translate(147.412109 0)"/>
       <use xlink:href="#DejaVuSans-36" transform="translate(179.199219 0)"/>
      </g>
     </g>
    </g>
    <g id="xtick_3">
     <g id="line2d_5">
      <path d="M 105.770848 385.557812
L 105.770848 23.837812
" clip-path="url(#pa4d2a1e41b)" style="fill: none; stroke: #b0b0b0; stroke-opacity: 0.6; stroke-width: 1.2; stroke-linecap: square"/>
     </g>
     <g id="line2d_6">
      <g>
       <use xlink:href="#mf856bb228f" x="105.770848" y="385.557812" style="stroke: #000000; stroke-width: 0.8"/>
      </g>
     </g>
     <g id="text_3">
      <!-- −0.5 -->
      <g transform="translate(93.629442 400.15625) scale(0.1 -0.1)">
       <defs>
        <path id="DejaVuSans-35" d="M 691 4666
L 3169 4666
L 3169 4134
L 1269 4134
L 1269 2991
Q 1406 3038 1543 3061
Q 1681 3084 1819 3084
Q 2600 3084 3056 2656
Q 3513 2228 3513 1497
Q 3513 744 3044 326
Q 2575 -91 1722 -91
Q 1428 -91 1123 -41
Q 819 9 494 109
L 494 744
Q 775 591 1075 516
Q 1375 441 1709 441
Q 2250 441 2565 725
Q 2881 1009 2881 1497
Q 2881 1984 2565 2268
Q 2250 2553 1709 2553
Q 1456 2553 1204 2497
Q 953 2441 691 2322
L 691 4666
z
" transform="scale(0.015625)"/>
       </defs>
       <use xlink:href="#DejaVuSans-2212"/>
       <use xlink:href="#DejaVuSans-30" transform="translate(83.789062 0)"/>
       <use xlink:href="#DejaVuSans-2e" transform="translate(147.412109 0)"/>
       <use xlink:href="#DejaVuSans-35" transform="translate(179.199219 0)"/>
      </g>
     </g>
    </g>
    <g id="xtick_4">
     <g id="line2d_7">
      <path d="M 131.607991 385.557812
L 131.607991 23.837812
" clip-path="url(#pa4d2a1e41b)" style="fill: none; stroke: #b0b0b0; stroke-opacity: 0.6; stroke-width: 1.2; stroke-linecap: square"/>
     </g>
     <g id="line2d_8">
      <g>
       <use xlink:href="#mf856bb228f" x="131.607991" y="385.557812" style="stroke: #000000; stroke-width: 0.8"/>
      </g>
     </g>
     <g id="text_4">
      <!-- −0.4 -->
      <g transform="translate(119.466585 400.15625) scale(0.1 -0.1)">
       <defs>
        <path id="DejaVuSans-34" d="M 2419 4116
L 825 1625
L 2419 1625
L 2419 4116
z
M 2253 4666
L 3047 4666
L 3047 1625
L 3713 1625
L 3713 1100
L 3047 1100
L 3047 0
L 2419 0
L 2419 1100
L 313 1100
L 313 1709
L 2253 4666
z
" transform="scale(0.015625)"/>
       </defs>
       <use xlink:href="#DejaVuSans-2212"/>
       <use xlink:href="#DejaVuSans-30" transform="translate(83.789062 0)"/>
       <use xlink:href="#DejaVuSans-2e" transform="translate(147.412109 0)"/>
       <use xlink:href="#DejaVuSans-34" transform="translate(179.199219 0)"/>
      </g>
     </g>
    </g>
    <g id="xtick_5">
     <g id="line2d_9">
      <path d="M 157.445134 385.557812
L 157.445134 23.837812
" clip-path="url(#pa4d2a1e41b)" style="fill: none; stroke: #b0b0b0; stroke-opacity: 0.6; stroke-width: 1.2; stroke-linecap: square"/>
     </g>
     <g id="line2d_10">
      <g>
       <use xlink:href="#mf856bb228f" x="157.445134" y="385.557812" style="stroke: #000000; stroke-width: 0.8"/>
      </g>
     </g>
     <g id="text_5">
      <!-- −0.3 -->
      <g transform="translate(145.303728 400.15625) scale(0.1 -0.1)">
       <defs>
        <path id="DejaVuSans-33" d="M 2597 2516
Q 3050 2419 3304 2112
Q 3559 1806 3559 1356
Q 3559 666 3084 287
Q 2609 -91 1734 -91
Q 1441 -91 1130 -33
Q 819 25 488 141
L 488 750
Q 750 597 1062 519
Q 1375 441 1716 441
Q 2309 441 2620 675
Q 2931 909 2931 1356
Q 2931 1769 2642 2001
Q 2353 2234 1838 2234
L 1294 2234
L 1294 2753
L 1863 2753
Q 2328 2753 2575 2939
Q 2822 3125 2822 3475
Q 2822 3834 2567 4026
Q 2313 4219 1838 4219
Q 1578 4219 1281 4162
Q 984 4106 628 3988
L 628 4550
Q 988 4650 1302 4700
Q 1616 4750 1894 4750
Q 2613 4750 3031 4423
Q 3450 4097 3450 3541
Q 3450 3153 3228 2886
Q 3006 2619 2597 2516
z
" transform="scale(0.015625)"/>
       </defs>
       <use xlink:href="#DejaVuSans-2212"/>
       <use xlink:href="#DejaVuSans-30" transform="translate(83.789062 0)"/>
       <use xlink:href="#DejaVuSans-2e" transform="translate(147.412109 0)"/>
       <use xlink:href="#DejaVuSans-33" transform="translate(179.199219 0)"/>
      </g>
     </g>
    </g>
    <g id="xtick_6">
     <g id="line2d_11">
      <path d="M 183.282277 385.557812
L 183.282277 23.837812
" clip-path="url(#pa4d2a1e41b)" style="fill: none; stroke: #b0b0b0; stroke-opacity: 0.6; stroke-width: 1.2; stroke-linecap: square"/>
     </g>
     <g id="line2d_12">
      <g>
       <use xlink:href="#mf856bb228f" x="183.282277" y="385.557812" style="stroke: #000000; stroke-width: 0.8"/>
      </g>
     </g>
     <g id="text_6">
      <!-- −0.2 -->
      <g transform="translate(171.140871 400.15625) scale(0.1 -0.1)">
       <defs>
        <path id="DejaVuSans-32" d="M 1228 531
L 3431 531
L 3431 0
L 469 0
L 469 531
Q 828 903 1448 1529
Q 2069 2156 2228 2338
Q 2531 2678 2651 2914
Q 2772 3150 2772 3378
Q 2772 3750 2511 3984
Q 2250 4219 1831 4219
Q 1534 4219 1204 4116
Q 875 4013 500 3803
L 500 4441
Q 881 4594 1212 4672
Q 1544 4750 1819 4750
Q 2544 4750 2975 4387
Q 3406 4025 3406 3419
Q 3406 3131 3298 2873
Q 3191 2616 2906 2266
Q 2828 2175 2409 1742
Q 1991 1309 1228 531
z
" transform="scale(0.015625)"/>
       </defs>
       <use xlink:href="#DejaVuSans-2212"/>
       <use xlink:href="#DejaVuSans-30" transform="translate(83.789062 0)"/>
       <use xlink:href="#DejaVuSans-2e" transform="translate(147.412109 0)"/>
       <use xlink:href="#DejaVuSans-32" transform="translate(179.199219 0)"/>
      </g>
     </g>
    </g>
    <g id="xtick_7">
     <g id="line2d_13">
      <path d="M 209.11942 385.557812
L 209.11942 23.837812
" clip-path="url(#pa4d2a1e41b)" style="fill: none; stroke: #b0b0b0; stroke-opacity: 0.6; stroke-width: 1.2; stroke-linecap: square"/>
     </g>
     <g id="line2d_14">
      <g>
       <use xlink:href="#mf856bb228f" x="209.11942" y="385.557812" style="stroke: #000000; stroke-width: 0.8"/>
      </g>
     </g>
     <g id="text_7">
      <!-- −0.1 -->
      <g transform="translate(196.978013 400.15625) scale(0.1 -0.1)">
       <defs>
        <path id="DejaVuSans-31" d="M 794 531
L 1825 531
L 1825 4091
L 703 3866
L 703 4441
L 1819 4666
L 2450 4666
L 2450 531
L 3481 531
L 3481 0
L 794 0
L 794 531
z
" transform="scale(0.015625)"/>
       </defs>
       <use xlink:href="#DejaVuSans-2212"/>
       <use xlink:href="#DejaVuSans-30" transform="translate(83.789062 0)"/>
       <use xlink:href="#DejaVuSans-2e" transform="translate(147.412109 0)"/>
       <use xlink:href="#DejaVuSans-31" transform="translate(179.199219 0)"/>
      </g>
     </g>
    </g>
    <g id="xtick_8">
     <g id="line2d_15">
      <path d="M 234.956562 385.557812
L 234.956562 23.837812
" clip-path="url(#pa4d2a1e41b)" style="fill: none; stroke: #b0b0b0; stroke-opacity: 0.6; stroke-width: 1.2; stroke-linecap: square"/>
     </g>
     <g id="line2d_16">
      <g>
       <use xlink:href="#mf856bb228f" x="234.956562" y="385.557812" style="stroke: #000000; stroke-width: 0.8"/>
      </g>
     </g>
     <g id="text_8">
      <!-- 0.0 -->
      <g transform="translate(227.005 400.15625) scale(0.1 -0.1)">
       <use xlink:href="#DejaVuSans-30"/>
       <use xlink:href="#DejaVuSans-2e" transform="translate(63.623047 0)"/>
       <use xlink:href="#DejaVuSans-30" transform="translate(95.410156 0)"/>
      </g>
     </g>
    </g>
    <g id="xtick_9">
     <g id="line2d_17">
      <path d="M 260.793705 385.557812
L 260.793705 23.837812
" clip-path="url(#pa4d2a1e41b)" style="fill: none; stroke: #b0b0b0; stroke-opacity: 0.6; stroke-width: 1.2; stroke-linecap: square"/>
     </g>
     <g id="line2d_18">
      <g>
       <use xlink:href="#mf856bb228f" x="260.793705" y="385.557812" style="stroke: #000000; stroke-width: 0.8"/>
      </g>
     </g>
     <g id="text_9">
      <!-- 0.1 -->
      <g transform="translate(252.842143 400.15625) scale(0.1 -0.1)">
       <use xlink:href="#DejaVuSans-30"/>
       <use xlink:href="#DejaVuSans-2e" transform="translate(63.623047 0)"/>
       <use xlink:href="#DejaVuSans-31" transform="translate(95.410156 0)"/>
      </g>
     </g>
    </g>
    <g id="xtick_10">
     <g id="line2d_19">
      <path d="M 286.630848 385.557812
L 286.630848 23.837812
" clip-path="url(#pa4d2a1e41b)" style="fill: none; stroke: #b0b0b0; stroke-opacity: 0.6; stroke-width: 1.2; stroke-linecap: square"/>
     </g>
     <g id="line2d_20">
      <g>
       <use xlink:href="#mf856bb228f" x="286.630848" y="385.557812" style="stroke: #000000; stroke-width: 0.8"/>
      </g>
     </g>
     <g id="text_10">
      <!-- 0.2 -->
      <g transform="translate(278.679286 400.15625) scale(0.1 -0.1)">
       <use xlink:href="#DejaVuSans-30"/>
       <use xlink:href="#DejaVuSans-2e" transform="translate(63.623047 0)"/>
       <use xlink:href="#DejaVuSans-32" transform="translate(95.410156 0)"/>
      </g>
     </g>
    </g>
    <g id="xtick_11">
     <g id="line2d_21">
      <path d="M 312.467991 385.557812
L 312.467991 23.837812
" clip-path="url(#pa4d2a1e41b)" style="fill: none; stroke: #b0b0b0; stroke-opacity: 0.6; stroke-width: 1.2; stroke-linecap: square"/>
     </g>
     <g id="line2d_22">
      <g>
       <use xlink:href="#mf856bb228f" x="312.467991" y="385.557812" style="stroke: #000000; stroke-width: 0.8"/>
      </g>
     </g>
     <g id="text_11">
      <!-- 0.3 -->
      <g transform="translate(304.516429 400.15625) scale(0.1 -0.1)">
       <use xlink:href="#DejaVuSans-30"/>
       <use xlink:href="#DejaVuSans-2e" transform="translate(63.623047 0)"/>
       <use xlink:href="#DejaVuSans-33" transform="translate(95.410156 0)"/>
      </g>
     </g>
    </g>
    <g id="xtick_12">
     <g id="line2d_23">
      <path d="M 338.305134 385.557812
L 338.305134 23.837812
" clip-path="url(#pa4d2a1e41b)" style="fill: none; stroke: #b0b0b0; stroke-opacity: 0.6; stroke-width: 1.2; stroke-linecap: square"/>
     </g>
     <g id="line2d_24">
      <g>
       <use xlink:href="#mf856bb228f" x="338.305134" y="385.557812" style="stroke: #000000; stroke-width: 0.8"/>
      </g>
     </g>
     <g id="text_12">
      <!-- 0.4 -->
      <g transform="translate(330.353571 400.15625) scale(0.1 -0.1)">
       <use xlink:href="#DejaVuSans-30"/>
       <use xlink:href="#DejaVuSans-2e" transform="translate(63.623047 0)"/>
       <use xlink:href="#DejaVuSans-34" transform="translate(95.410156 0)"/>
      </g>
     </g>
    </g>
    <g id="xtick_13">
     <g id="line2d_25">
      <path d="M 364.142277 385.557812
L 364.142277 23.837812
" clip-path="url(#pa4d2a1e41b)" style="fill: none; stroke: #b0b0b0; stroke-opacity: 0.6; stroke-width: 1.2; stroke-linecap: square"/>
     </g>
     <g id="line2d_26">
      <g>
       <use xlink:href="#mf856bb228f" x="364.142277" y="385.557812" style="stroke: #000000; stroke-width: 0.8"/>
      </g>
     </g>
     <g id="text_13">
      <!-- 0.5 -->
      <g transform="translate(356.190714 400.15625) scale(0.1 -0.1)">
       <use xlink:href="#DejaVuSans-30"/>
       <use xlink:href="#DejaVuSans-2e" transform="translate(63.623047 0)"/>
       <use xlink:href="#DejaVuSans-35" transform="translate(95.410156 0)"/>
      </g>
     </g>
    </g>
    <g id="xtick_14">
     <g id="line2d_27">
      <path d="M 389.97942 385.557812
L 389.97942 23.837812
" clip-path="url(#pa4d2a1e41b)" style="fill: none; stroke: #b0b0b0; stroke-opacity: 0.6; stroke-width: 1.2; stroke-linecap: square"/>
     </g>
     <g id="line2d_28">
      <g>
       <use xlink:href="#mf856bb228f" x="389.97942" y="385.557812" style="stroke: #000000; stroke-width: 0.8"/>
      </g>
     </g>
     <g id="text_14">
      <!-- 0.6 -->
      <g transform="translate(382.027857 400.15625) scale(0.1 -0.1)">
       <use xlink:href="#DejaVuSans-30"/>
       <use xlink:href="#DejaVuSans-2e" transform="translate(63.623047 0)"/>
       <use xlink:href="#DejaVuSans-36" transform="translate(95.410156 0)"/>
      </g>
     </g>
    </g>
    <g id="xtick_15">
     <g id="line2d_29">
      <path d="M 415.816562 385.557812
L 415.816562 23.837812
" clip-path="url(#pa4d2a1e41b)" style="fill: none; stroke: #b0b0b0; stroke-opacity: 0.6; stroke-width: 1.2; stroke-linecap: square"/>
     </g>
     <g id="line2d_30">
      <g>
       <use xlink:href="#mf856bb228f" x="415.816562" y="385.557812" style="stroke: #000000; stroke-width: 0.8"/>
      </g>
     </g>
     <g id="text_15">
      <!-- 0.7 -->
      <g transform="translate(407.865 400.15625) scale(0.1 -0.1)">
       <use xlink:href="#DejaVuSans-30"/>
       <use xlink:href="#DejaVuSans-2e" transform="translate(63.623047 0)"/>
       <use xlink:href="#DejaVuSans-37" transform="translate(95.410156 0)"/>
      </g>
     </g>
    </g>
    <g id="text_16">
     <!-- strike direction relative midpoint normalized to width -->
     <g transform="translate(75.51125 415.354062) scale(0.12 -0.12)">
      <defs>
       <path id="DejaVuSans-73" d="M 2834 3397
L 2834 2853
Q 2591 2978 2328 3040
Q 2066 3103 1784 3103
Q 1356 3103 1142 2972
Q 928 2841 928 2578
Q 928 2378 1081 2264
Q 1234 2150 1697 2047
L 1894 2003
Q 2506 1872 2764 1633
Q 3022 1394 3022 966
Q 3022 478 2636 193
Q 2250 -91 1575 -91
Q 1294 -91 989 -36
Q 684 19 347 128
L 347 722
Q 666 556 975 473
Q 1284 391 1588 391
Q 1994 391 2212 530
Q 2431 669 2431 922
Q 2431 1156 2273 1281
Q 2116 1406 1581 1522
L 1381 1569
Q 847 1681 609 1914
Q 372 2147 372 2553
Q 372 3047 722 3315
Q 1072 3584 1716 3584
Q 2034 3584 2315 3537
Q 2597 3491 2834 3397
z
" transform="scale(0.015625)"/>
       <path id="DejaVuSans-74" d="M 1172 4494
L 1172 3500
L 2356 3500
L 2356 3053
L 1172 3053
L 1172 1153
Q 1172 725 1289 603
Q 1406 481 1766 481
L 2356 481
L 2356 0
L 1766 0
Q 1100 0 847 248
Q 594 497 594 1153
L 594 3053
L 172 3053
L 172 3500
L 594 3500
L 594 4494
L 1172 4494
z
" transform="scale(0.015625)"/>
       <path id="DejaVuSans-72" d="M 2631 2963
Q 2534 3019 2420 3045
Q 2306 3072 2169 3072
Q 1681 3072 1420 2755
Q 1159 2438 1159 1844
L 1159 0
L 581 0
L 581 3500
L 1159 3500
L 1159 2956
Q 1341 3275 1631 3429
Q 1922 3584 2338 3584
Q 2397 3584 2469 3576
Q 2541 3569 2628 3553
L 2631 2963
z
" transform="scale(0.015625)"/>
       <path id="DejaVuSans-69" d="M 603 3500
L 1178 3500
L 1178 0
L 603 0
L 603 3500
z
M 603 4863
L 1178 4863
L 1178 4134
L 603 4134
L 603 4863
z
" transform="scale(0.015625)"/>
       <path id="DejaVuSans-6b" d="M 581 4863
L 1159 4863
L 1159 1991
L 2875 3500
L 3609 3500
L 1753 1863
L 3688 0
L 2938 0
L 1159 1709
L 1159 0
L 581 0
L 581 4863
z
" transform="scale(0.015625)"/>
       <path id="DejaVuSans-65" d="M 3597 1894
L 3597 1613
L 953 1613
Q 991 1019 1311 708
Q 1631 397 2203 397
Q 2534 397 2845 478
Q 3156 559 3463 722
L 3463 178
Q 3153 47 2828 -22
Q 2503 -91 2169 -91
Q 1331 -91 842 396
Q 353 884 353 1716
Q 353 2575 817 3079
Q 1281 3584 2069 3584
Q 2775 3584 3186 3129
Q 3597 2675 3597 1894
z
M 3022 2063
Q 3016 2534 2758 2815
Q 2500 3097 2075 3097
Q 1594 3097 1305 2825
Q 1016 2553 972 2059
L 3022 2063
z
" transform="scale(0.015625)"/>
       <path id="DejaVuSans-20" transform="scale(0.015625)"/>
       <path id="DejaVuSans-64" d="M 2906 2969
L 2906 4863
L 3481 4863
L 3481 0
L 2906 0
L 2906 525
Q 2725 213 2448 61
Q 2172 -91 1784 -91
Q 1150 -91 751 415
Q 353 922 353 1747
Q 353 2572 751 3078
Q 1150 3584 1784 3584
Q 2172 3584 2448 3432
Q 2725 3281 2906 2969
z
M 947 1747
Q 947 1113 1208 752
Q 1469 391 1925 391
Q 2381 391 2643 752
Q 2906 1113 2906 1747
Q 2906 2381 2643 2742
Q 2381 3103 1925 3103
Q 1469 3103 1208 2742
Q 947 2381 947 1747
z
" transform="scale(0.015625)"/>
       <path id="DejaVuSans-63" d="M 3122 3366
L 3122 2828
Q 2878 2963 2633 3030
Q 2388 3097 2138 3097
Q 1578 3097 1268 2742
Q 959 2388 959 1747
Q 959 1106 1268 751
Q 1578 397 2138 397
Q 2388 397 2633 464
Q 2878 531 3122 666
L 3122 134
Q 2881 22 2623 -34
Q 2366 -91 2075 -91
Q 1284 -91 818 406
Q 353 903 353 1747
Q 353 2603 823 3093
Q 1294 3584 2113 3584
Q 2378 3584 2631 3529
Q 2884 3475 3122 3366
z
" transform="scale(0.015625)"/>
       <path id="DejaVuSans-6f" d="M 1959 3097
Q 1497 3097 1228 2736
Q 959 2375 959 1747
Q 959 1119 1226 758
Q 1494 397 1959 397
Q 2419 397 2687 759
Q 2956 1122 2956 1747
Q 2956 2369 2687 2733
Q 2419 3097 1959 3097
z
M 1959 3584
Q 2709 3584 3137 3096
Q 3566 2609 3566 1747
Q 3566 888 3137 398
Q 2709 -91 1959 -91
Q 1206 -91 779 398
Q 353 888 353 1747
Q 353 2609 779 3096
Q 1206 3584 1959 3584
z
" transform="scale(0.015625)"/>
       <path id="DejaVuSans-6e" d="M 3513 2113
L 3513 0
L 2938 0
L 2938 2094
Q 2938 2591 2744 2837
Q 2550 3084 2163 3084
Q 1697 3084 1428 2787
Q 1159 2491 1159 1978
L 1159 0
L 581 0
L 581 3500
L 1159 3500
L 1159 2956
Q 1366 3272 1645 3428
Q 1925 3584 2291 3584
Q 2894 3584 3203 3211
Q 3513 2838 3513 2113
z
" transform="scale(0.015625)"/>
       <path id="DejaVuSans-6c" d="M 603 4863
L 1178 4863
L 1178 0
L 603 0
L 603 4863
z
" transform="scale(0.015625)"/>
       <path id="DejaVuSans-61" d="M 2194 1759
Q 1497 1759 1228 1600
Q 959 1441 959 1056
Q 959 750 1161 570
Q 1363 391 1709 391
Q 2188 391 2477 730
Q 2766 1069 2766 1631
L 2766 1759
L 2194 1759
z
M 3341 1997
L 3341 0
L 2766 0
L 2766 531
Q 2569 213 2275 61
Q 1981 -91 1556 -91
Q 1019 -91 701 211
Q 384 513 384 1019
Q 384 1609 779 1909
Q 1175 2209 1959 2209
L 2766 2209
L 2766 2266
Q 2766 2663 2505 2880
Q 2244 3097 1772 3097
Q 1472 3097 1187 3025
Q 903 2953 641 2809
L 641 3341
Q 956 3463 1253 3523
Q 1550 3584 1831 3584
Q 2591 3584 2966 3190
Q 3341 2797 3341 1997
z
" transform="scale(0.015625)"/>
       <path id="DejaVuSans-76" d="M 191 3500
L 800 3500
L 1894 563
L 2988 3500
L 3597 3500
L 2284 0
L 1503 0
L 191 3500
z
" transform="scale(0.015625)"/>
       <path id="DejaVuSans-6d" d="M 3328 2828
Q 3544 3216 3844 3400
Q 4144 3584 4550 3584
Q 5097 3584 5394 3201
Q 5691 2819 5691 2113
L 5691 0
L 5113 0
L 5113 2094
Q 5113 2597 4934 2840
Q 4756 3084 4391 3084
Q 3944 3084 3684 2787
Q 3425 2491 3425 1978
L 3425 0
L 2847 0
L 2847 2094
Q 2847 2600 2669 2842
Q 2491 3084 2119 3084
Q 1678 3084 1418 2786
Q 1159 2488 1159 1978
L 1159 0
L 581 0
L 581 3500
L 1159 3500
L 1159 2956
Q 1356 3278 1631 3431
Q 1906 3584 2284 3584
Q 2666 3584 2933 3390
Q 3200 3197 3328 2828
z
" transform="scale(0.015625)"/>
       <path id="DejaVuSans-70" d="M 1159 525
L 1159 -1331
L 581 -1331
L 581 3500
L 1159 3500
L 1159 2969
Q 1341 3281 1617 3432
Q 1894 3584 2278 3584
Q 2916 3584 3314 3078
Q 3713 2572 3713 1747
Q 3713 922 3314 415
Q 2916 -91 2278 -91
Q 1894 -91 1617 61
Q 1341 213 1159 525
z
M 3116 1747
Q 3116 2381 2855 2742
Q 2594 3103 2138 3103
Q 1681 3103 1420 2742
Q 1159 2381 1159 1747
Q 1159 1113 1420 752
Q 1681 391 2138 391
Q 2594 391 2855 752
Q 3116 1113 3116 1747
z
" transform="scale(0.015625)"/>
       <path id="DejaVuSans-7a" d="M 353 3500
L 3084 3500
L 3084 2975
L 922 459
L 3084 459
L 3084 0
L 275 0
L 275 525
L 2438 3041
L 353 3041
L 353 3500
z
" transform="scale(0.015625)"/>
       <path id="DejaVuSans-77" d="M 269 3500
L 844 3500
L 1563 769
L 2278 3500
L 2956 3500
L 3675 769
L 4391 3500
L 4966 3500
L 4050 0
L 3372 0
L 2619 2869
L 1863 0
L 1184 0
L 269 3500
z
" transform="scale(0.015625)"/>
       <path id="DejaVuSans-68" d="M 3513 2113
L 3513 0
L 2938 0
L 2938 2094
Q 2938 2591 2744 2837
Q 2550 3084 2163 3084
Q 1697 3084 1428 2787
Q 1159 2491 1159 1978
L 1159 0
L 581 0
L 581 4863
L 1159 4863
L 1159 2956
Q 1366 3272 1645 3428
Q 1925 3584 2291 3584
Q 2894 3584 3203 3211
Q 3513 2838 3513 2113
z
" transform="scale(0.015625)"/>
      </defs>
      <use xlink:href="#DejaVuSans-73"/>
      <use xlink:href="#DejaVuSans-74" transform="translate(52.099609 0)"/>
      <use xlink:href="#DejaVuSans-72" transform="translate(91.308594 0)"/>
      <use xlink:href="#DejaVuSans-69" transform="translate(132.421875 0)"/>
      <use xlink:href="#DejaVuSans-6b" transform="translate(160.205078 0)"/>
      <use xlink:href="#DejaVuSans-65" transform="translate(214.490234 0)"/>
      <use xlink:href="#DejaVuSans-20" transform="translate(276.013672 0)"/>
      <use xlink:href="#DejaVuSans-64" transform="translate(307.800781 0)"/>
      <use xlink:href="#DejaVuSans-69" transform="translate(371.277344 0)"/>
      <use xlink:href="#DejaVuSans-72" transform="translate(399.060547 0)"/>
      <use xlink:href="#DejaVuSans-65" transform="translate(437.923828 0)"/>
      <use xlink:href="#DejaVuSans-63" transform="translate(499.447266 0)"/>
      <use xlink:href="#DejaVuSans-74" transform="translate(554.427734 0)"/>
      <use xlink:href="#DejaVuSans-69" transform="translate(593.636719 0)"/>
      <use xlink:href="#DejaVuSans-6f" transform="translate(621.419922 0)"/>
      <use xlink:href="#DejaVuSans-6e" transform="translate(682.601562 0)"/>
      <use xlink:href="#DejaVuSans-20" transform="translate(745.980469 0)"/>
      <use xlink:href="#DejaVuSans-72" transform="translate(777.767578 0)"/>
      <use xlink:href="#DejaVuSans-65" transform="translate(816.630859 0)"/>
      <use xlink:href="#DejaVuSans-6c" transform="translate(878.154297 0)"/>
      <use xlink:href="#DejaVuSans-61" transform="translate(905.9375 0)"/>
      <use xlink:href="#DejaVuSans-74" transform="translate(967.216797 0)"/>
      <use xlink:href="#DejaVuSans-69" transform="translate(1006.425781 0)"/>
      <use xlink:href="#DejaVuSans-76" transform="translate(1034.208984 0)"/>
      <use xlink:href="#DejaVuSans-65" transform="translate(1093.388672 0)"/>
      <use xlink:href="#DejaVuSans-20" transform="translate(1154.912109 0)"/>
      <use xlink:href="#DejaVuSans-6d" transform="translate(1186.699219 0)"/>
      <use xlink:href="#DejaVuSans-69" transform="translate(1284.111328 0)"/>
      <use xlink:href="#DejaVuSans-64" transform="translate(1311.894531 0)"/>
      <use xlink:href="#DejaVuSans-70" transform="translate(1375.371094 0)"/>
      <use xlink:href="#DejaVuSans-6f" transform="translate(1438.847656 0)"/>
      <use xlink:href="#DejaVuSans-69" transform="translate(1500.029297 0)"/>
      <use xlink:href="#DejaVuSans-6e" transform="translate(1527.8125 0)"/>
      <use xlink:href="#DejaVuSans-74" transform="translate(1591.191406 0)"/>
      <use xlink:href="#DejaVuSans-20" transform="translate(1630.400391 0)"/>
      <use xlink:href="#DejaVuSans-6e" transform="translate(1662.1875 0)"/>
      <use xlink:href="#DejaVuSans-6f" transform="translate(1725.566406 0)"/>
      <use xlink:href="#DejaVuSans-72" transform="translate(1786.748047 0)"/>
      <use xlink:href="#DejaVuSans-6d" transform="translate(1826.111328 0)"/>
      <use xlink:href="#DejaVuSans-61" transform="translate(1923.523438 0)"/>
      <use xlink:href="#DejaVuSans-6c" transform="translate(1984.802734 0)"/>
      <use xlink:href="#DejaVuSans-69" transform="translate(2012.585938 0)"/>
      <use xlink:href="#DejaVuSans-7a" transform="translate(2040.369141 0)"/>
      <use xlink:href="#DejaVuSans-65" transform="translate(2092.859375 0)"/>
      <use xlink:href="#DejaVuSans-64" transform="translate(2154.382812 0)"/>
      <use xlink:href="#DejaVuSans-20" transform="translate(2217.859375 0)"/>
      <use xlink:href="#DejaVuSans-74" transform="translate(2249.646484 0)"/>
      <use xlink:href="#DejaVuSans-6f" transform="translate(2288.855469 0)"/>
      <use xlink:href="#DejaVuSans-20" transform="translate(2350.037109 0)"/>
      <use xlink:href="#DejaVuSans-77" transform="translate(2381.824219 0)"/>
      <use xlink:href="#DejaVuSans-69" transform="translate(2463.611328 0)"/>
      <use xlink:href="#DejaVuSans-64" transform="translate(2491.394531 0)"/>
      <use xlink:href="#DejaVuSans-74" transform="translate(2554.871094 0)"/>
      <use xlink:href="#DejaVuSans-68" transform="translate(2594.080078 0)"/>
     </g>
    </g>
   </g>
   <g id="matplotlib.axis_2">
    <g id="ytick_1">
     <g id="line2d_31">
      <path d="M 54.096563 385.557812
L 415.816563 385.557812
" clip-path="url(#pa4d2a1e41b)" style="fill: none; stroke: #b0b0b0; stroke-opacity: 0.6; stroke-width: 1.2; stroke-linecap: square"/>
     </g>
     <g id="line2d_32">
      <defs>
       <path id="me2dfbeadd2" d="M 0 0
L -3.5 0
" style="stroke: #000000; stroke-width: 0.8"/>
      </defs>
      <g>
       <use xlink:href="#me2dfbeadd2" x="54.096563" y="385.557812" style="stroke: #000000; stroke-width: 0.8"/>
      </g>
     </g>
     <g id="text_17">
      <!-- −0.7 -->
      <g transform="translate(22.81375 389.357031) scale(0.1 -0.1)">
       <use xlink:href="#DejaVuSans-2212"/>
       <use xlink:href="#DejaVuSans-30" transform="translate(83.789062 0)"/>
       <use xlink:href="#DejaVuSans-2e" transform="translate(147.412109 0)"/>
       <use xlink:href="#DejaVuSans-37" transform="translate(179.199219 0)"/>
      </g>
     </g>
    </g>
    <g id="ytick_2">
     <g id="line2d_33">
      <path d="M 54.096563 359.72067
L 415.816563 359.72067
" clip-path="url(#pa4d2a1e41b)" style="fill: none; stroke: #b0b0b0; stroke-opacity: 0.6; stroke-width: 1.2; stroke-linecap: square"/>
     </g>
     <g id="line2d_34">
      <g>
       <use xlink:href="#me2dfbeadd2" x="54.096563" y="359.72067" style="stroke: #000000; stroke-width: 0.8"/>
      </g>
     </g>
     <g id="text_18">
      <!-- −0.6 -->
      <g transform="translate(22.81375 363.519888) scale(0.1 -0.1)">
       <use xlink:href="#DejaVuSans-2212"/>
       <use xlink:href="#DejaVuSans-30" transform="translate(83.789062 0)"/>
       <use xlink:href="#DejaVuSans-2e" transform="translate(147.412109 0)"/>
       <use xlink:href="#DejaVuSans-36" transform="translate(179.199219 0)"/>
      </g>
     </g>
    </g>
    <g id="ytick_3">
     <g id="line2d_35">
      <path d="M 54.096563 333.883527
L 415.816563 333.883527
" clip-path="url(#pa4d2a1e41b)" style="fill: none; stroke: #b0b0b0; stroke-opacity: 0.6; stroke-width: 1.2; stroke-linecap: square"/>
     </g>
     <g id="line2d_36">
      <g>
       <use xlink:href="#me2dfbeadd2" x="54.096563" y="333.883527" style="stroke: #000000; stroke-width: 0.8"/>
      </g>
     </g>
     <g id="text_19">
      <!-- −0.5 -->
      <g transform="translate(22.81375 337.682746) scale(0.1 -0.1)">
       <use xlink:href="#DejaVuSans-2212"/>
       <use xlink:href="#DejaVuSans-30" transform="translate(83.789062 0)"/>
       <use xlink:href="#DejaVuSans-2e" transform="translate(147.412109 0)"/>
       <use xlink:href="#DejaVuSans-35" transform="translate(179.199219 0)"/>
      </g>
     </g>
    </g>
    <g id="ytick_4">
     <g id="line2d_37">
      <path d="M 54.096563 308.046384
L 415.816563 308.046384
" clip-path="url(#pa4d2a1e41b)" style="fill: none; stroke: #b0b0b0; stroke-opacity: 0.6; stroke-width: 1.2; stroke-linecap: square"/>
     </g>
     <g id="line2d_38">
      <g>
       <use xlink:href="#me2dfbeadd2" x="54.096563" y="308.046384" style="stroke: #000000; stroke-width: 0.8"/>
      </g>
     </g>
     <g id="text_20">
      <!-- −0.4 -->
      <g transform="translate(22.81375 311.845603) scale(0.1 -0.1)">
       <use xlink:href="#DejaVuSans-2212"/>
       <use xlink:href="#DejaVuSans-30" transform="translate(83.789062 0)"/>
       <use xlink:href="#DejaVuSans-2e" transform="translate(147.412109 0)"/>
       <use xlink:href="#DejaVuSans-34" transform="translate(179.199219 0)"/>
      </g>
     </g>
    </g>
    <g id="ytick_5">
     <g id="line2d_39">
      <path d="M 54.096563 282.209241
L 415.816563 282.209241
" clip-path="url(#pa4d2a1e41b)" style="fill: none; stroke: #b0b0b0; stroke-opacity: 0.6; stroke-width: 1.2; stroke-linecap: square"/>
     </g>
     <g id="line2d_40">
      <g>
       <use xlink:href="#me2dfbeadd2" x="54.096563" y="282.209241" style="stroke: #000000; stroke-width: 0.8"/>
      </g>
     </g>
     <g id="text_21">
      <!-- −0.3 -->
      <g transform="translate(22.81375 286.00846) scale(0.1 -0.1)">
       <use xlink:href="#DejaVuSans-2212"/>
       <use xlink:href="#DejaVuSans-30" transform="translate(83.789062 0)"/>
       <use xlink:href="#DejaVuSans-2e" transform="translate(147.412109 0)"/>
       <use xlink:href="#DejaVuSans-33" transform="translate(179.199219 0)"/>
      </g>
     </g>
    </g>
    <g id="ytick_6">
     <g id="line2d_41">
      <path d="M 54.096563 256.372098
L 415.816563 256.372098
" clip-path="url(#pa4d2a1e41b)" style="fill: none; stroke: #b0b0b0; stroke-opacity: 0.6; stroke-width: 1.2; stroke-linecap: square"/>
     </g>
     <g id="line2d_42">
      <g>
       <use xlink:href="#me2dfbeadd2" x="54.096563" y="256.372098" style="stroke: #000000; stroke-width: 0.8"/>
      </g>
     </g>
     <g id="text_22">
      <!-- −0.2 -->
      <g transform="translate(22.81375 260.171317) scale(0.1 -0.1)">
       <use xlink:href="#DejaVuSans-2212"/>
       <use xlink:href="#DejaVuSans-30" transform="translate(83.789062 0)"/>
       <use xlink:href="#DejaVuSans-2e" transform="translate(147.412109 0)"/>
       <use xlink:href="#DejaVuSans-32" transform="translate(179.199219 0)"/>
      </g>
     </g>
    </g>
    <g id="ytick_7">
     <g id="line2d_43">
      <path d="M 54.096563 230.534955
L 415.816563 230.534955
" clip-path="url(#pa4d2a1e41b)" style="fill: none; stroke: #b0b0b0; stroke-opacity: 0.6; stroke-width: 1.2; stroke-linecap: square"/>
     </g>
     <g id="line2d_44">
      <g>
       <use xlink:href="#me2dfbeadd2" x="54.096563" y="230.534955" style="stroke: #000000; stroke-width: 0.8"/>
      </g>
     </g>
     <g id="text_23">
      <!-- −0.1 -->
      <g transform="translate(22.81375 234.334174) scale(0.1 -0.1)">
       <use xlink:href="#DejaVuSans-2212"/>
       <use xlink:href="#DejaVuSans-30" transform="translate(83.789062 0)"/>
       <use xlink:href="#DejaVuSans-2e" transform="translate(147.412109 0)"/>
       <use xlink:href="#DejaVuSans-31" transform="translate(179.199219 0)"/>
      </g>
     </g>
    </g>
    <g id="ytick_8">
     <g id="line2d_45">
      <path d="M 54.096563 204.697812
L 415.816563 204.697812
" clip-path="url(#pa4d2a1e41b)" style="fill: none; stroke: #b0b0b0; stroke-opacity: 0.6; stroke-width: 1.2; stroke-linecap: square"/>
     </g>
     <g id="line2d_46">
      <g>
       <use xlink:href="#me2dfbeadd2" x="54.096563" y="204.697812" style="stroke: #000000; stroke-width: 0.8"/>
      </g>
     </g>
     <g id="text_24">
      <!-- 0.0 -->
      <g transform="translate(31.193438 208.497031) scale(0.1 -0.1)">
       <use xlink:href="#DejaVuSans-30"/>
       <use xlink:href="#DejaVuSans-2e" transform="translate(63.623047 0)"/>
       <use xlink:href="#DejaVuSans-30" transform="translate(95.410156 0)"/>
      </g>
     </g>
    </g>
    <g id="ytick_9">
     <g id="line2d_47">
      <path d="M 54.096563 178.86067
L 415.816563 178.86067
" clip-path="url(#pa4d2a1e41b)" style="fill: none; stroke: #b0b0b0; stroke-opacity: 0.6; stroke-width: 1.2; stroke-linecap: square"/>
     </g>
     <g id="line2d_48">
      <g>
       <use xlink:href="#me2dfbeadd2" x="54.096563" y="178.86067" style="stroke: #000000; stroke-width: 0.8"/>
      </g>
     </g>
     <g id="text_25">
      <!-- 0.1 -->
      <g transform="translate(31.193438 182.659888) scale(0.1 -0.1)">
       <use xlink:href="#DejaVuSans-30"/>
       <use xlink:href="#DejaVuSans-2e" transform="translate(63.623047 0)"/>
       <use xlink:href="#DejaVuSans-31" transform="translate(95.410156 0)"/>
      </g>
     </g>
    </g>
    <g id="ytick_10">
     <g id="line2d_49">
      <path d="M 54.096563 153.023527
L 415.816563 153.023527
" clip-path="url(#pa4d2a1e41b)" style="fill: none; stroke: #b0b0b0; stroke-opacity: 0.6; stroke-width: 1.2; stroke-linecap: square"/>
     </g>
     <g id="line2d_50">
      <g>
       <use xlink:href="#me2dfbeadd2" x="54.096563" y="153.023527" style="stroke: #000000; stroke-width: 0.8"/>
      </g>
     </g>
     <g id="text_26">
      <!-- 0.2 -->
      <g transform="translate(31.193438 156.822746) scale(0.1 -0.1)">
       <use xlink:href="#DejaVuSans-30"/>
       <use xlink:href="#DejaVuSans-2e" transform="translate(63.623047 0)"/>
       <use xlink:href="#DejaVuSans-32" transform="translate(95.410156 0)"/>
      </g>
     </g>
    </g>
    <g id="ytick_11">
     <g id="line2d_51">
      <path d="M 54.096563 127.186384
L 415.816563 127.186384
" clip-path="url(#pa4d2a1e41b)" style="fill: none; stroke: #b0b0b0; stroke-opacity: 0.6; stroke-width: 1.2; stroke-linecap: square"/>
     </g>
     <g id="line2d_52">
      <g>
       <use xlink:href="#me2dfbeadd2" x="54.096563" y="127.186384" style="stroke: #000000; stroke-width: 0.8"/>
      </g>
     </g>
     <g id="text_27">
      <!-- 0.3 -->
      <g transform="translate(31.193438 130.985603) scale(0.1 -0.1)">
       <use xlink:href="#DejaVuSans-30"/>
       <use xlink:href="#DejaVuSans-2e" transform="translate(63.623047 0)"/>
       <use xlink:href="#DejaVuSans-33" transform="translate(95.410156 0)"/>
      </g>
     </g>
    </g>
    <g id="ytick_12">
     <g id="line2d_53">
      <path d="M 54.096563 101.349241
L 415.816563 101.349241
" clip-path="url(#pa4d2a1e41b)" style="fill: none; stroke: #b0b0b0; stroke-opacity: 0.6; stroke-width: 1.2; stroke-linecap: square"/>
     </g>
     <g id="line2d_54">
      <g>
       <use xlink:href="#me2dfbeadd2" x="54.096563" y="101.349241" style="stroke: #000000; stroke-width: 0.8"/>
      </g>
     </g>
     <g id="text_28">
      <!-- 0.4 -->
      <g transform="translate(31.193438 105.14846) scale(0.1 -0.1)">
       <use xlink:href="#DejaVuSans-30"/>
       <use xlink:href="#DejaVuSans-2e" transform="translate(63.623047 0)"/>
       <use xlink:href="#DejaVuSans-34" transform="translate(95.410156 0)"/>
      </g>
     </g>
    </g>
    <g id="ytick_13">
     <g id="line2d_55">
      <path d="M 54.096563 75.512098
L 415.816563 75.512098
" clip-path="url(#pa4d2a1e41b)" style="fill: none; stroke: #b0b0b0; stroke-opacity: 0.6; stroke-width: 1.2; stroke-linecap: square"/>
     </g>
     <g id="line2d_56">
      <g>
       <use xlink:href="#me2dfbeadd2" x="54.096563" y="75.512098" style="stroke: #000000; stroke-width: 0.8"/>
      </g>
     </g>
     <g id="text_29">
      <!-- 0.5 -->
      <g transform="translate(31.193438 79.311317) scale(0.1 -0.1)">
       <use xlink:href="#DejaVuSans-30"/>
       <use xlink:href="#DejaVuSans-2e" transform="translate(63.623047 0)"/>
       <use xlink:href="#DejaVuSans-35" transform="translate(95.410156 0)"/>
      </g>
     </g>
    </g>
    <g id="ytick_14">
     <g id="line2d_57">
      <path d="M 54.096563 49.674955
L 415.816563 49.674955
" clip-path="url(#pa4d2a1e41b)" style="fill: none; stroke: #b0b0b0; stroke-opacity: 0.6; stroke-width: 1.2; stroke-linecap: square"/>
     </g>
     <g id="line2d_58">
      <g>
       <use xlink:href="#me2dfbeadd2" x="54.096563" y="49.674955" style="stroke: #000000; stroke-width: 0.8"/>
      </g>
     </g>
     <g id="text_30">
      <!-- 0.6 -->
      <g transform="translate(31.193438 53.474174) scale(0.1 -0.1)">
       <use xlink:href="#DejaVuSans-30"/>
       <use xlink:href="#DejaVuSans-2e" transform="translate(63.623047 0)"/>
       <use xlink:href="#DejaVuSans-36" transform="translate(95.410156 0)"/>
      </g>
     </g>
    </g>
    <g id="ytick_15">
     <g id="line2d_59">
      <path d="M 54.096563 23.837812
L 415.816563 23.837812
" clip-path="url(#pa4d2a1e41b)" style="fill: none; stroke: #b0b0b0; stroke-opacity: 0.6; stroke-width: 1.2; stroke-linecap: square"/>
     </g>
     <g id="line2d_60">
      <g>
       <use xlink:href="#me2dfbeadd2" x="54.096563" y="23.837812" style="stroke: #000000; stroke-width: 0.8"/>
      </g>
     </g>
     <g id="text_31">
      <!-- 0.7 -->
      <g transform="translate(31.193438 27.637031) scale(0.1 -0.1)">
       <use xlink:href="#DejaVuSans-30"/>
       <use xlink:href="#DejaVuSans-2e" transform="translate(63.623047 0)"/>
       <use xlink:href="#DejaVuSans-37" transform="translate(95.410156 0)"/>
      </g>
     </g>
    </g>
    <g id="text_32">
     <!-- dip direction relative midpoint normalized to height -->
     <g transform="translate(16.318125 359.455625) rotate(-90) scale(0.12 -0.12)">
      <defs>
       <path id="DejaVuSans-67" d="M 2906 1791
Q 2906 2416 2648 2759
Q 2391 3103 1925 3103
Q 1463 3103 1205 2759
Q 947 2416 947 1791
Q 947 1169 1205 825
Q 1463 481 1925 481
Q 2391 481 2648 825
Q 2906 1169 2906 1791
z
M 3481 434
Q 3481 -459 3084 -895
Q 2688 -1331 1869 -1331
Q 1566 -1331 1297 -1286
Q 1028 -1241 775 -1147
L 775 -588
Q 1028 -725 1275 -790
Q 1522 -856 1778 -856
Q 2344 -856 2625 -561
Q 2906 -266 2906 331
L 2906 616
Q 2728 306 2450 153
Q 2172 0 1784 0
Q 1141 0 747 490
Q 353 981 353 1791
Q 353 2603 747 3093
Q 1141 3584 1784 3584
Q 2172 3584 2450 3431
Q 2728 3278 2906 2969
L 2906 3500
L 3481 3500
L 3481 434
z
" transform="scale(0.015625)"/>
      </defs>
      <use xlink:href="#DejaVuSans-64"/>
      <use xlink:href="#DejaVuSans-69" transform="translate(63.476562 0)"/>
      <use xlink:href="#DejaVuSans-70" transform="translate(91.259766 0)"/>
      <use xlink:href="#DejaVuSans-20" transform="translate(154.736328 0)"/>
      <use xlink:href="#DejaVuSans-64" transform="translate(186.523438 0)"/>
      <use xlink:href="#DejaVuSans-69" transform="translate(250 0)"/>
      <use xlink:href="#DejaVuSans-72" transform="translate(277.783203 0)"/>
      <use xlink:href="#DejaVuSans-65" transform="translate(316.646484 0)"/>
      <use xlink:href="#DejaVuSans-63" transform="translate(378.169922 0)"/>
      <use xlink:href="#DejaVuSans-74" transform="translate(433.150391 0)"/>
      <use xlink:href="#DejaVuSans-69" transform="translate(472.359375 0)"/>
      <use xlink:href="#DejaVuSans-6f" transform="translate(500.142578 0)"/>
      <use xlink:href="#DejaVuSans-6e" transform="translate(561.324219 0)"/>
      <use xlink:href="#DejaVuSans-20" transform="translate(624.703125 0)"/>
      <use xlink:href="#DejaVuSans-72" transform="translate(656.490234 0)"/>
      <use xlink:href="#DejaVuSans-65" transform="translate(695.353516 0)"/>
      <use xlink:href="#DejaVuSans-6c" transform="translate(756.876953 0)"/>
      <use xlink:href="#DejaVuSans-61" transform="translate(784.660156 0)"/>
      <use xlink:href="#DejaVuSans-74" transform="translate(845.939453 0)"/>
      <use xlink:href="#DejaVuSans-69" transform="translate(885.148438 0)"/>
      <use xlink:href="#DejaVuSans-76" transform="translate(912.931641 0)"/>
      <use xlink:href="#DejaVuSans-65" transform="translate(972.111328 0)"/>
      <use xlink:href="#DejaVuSans-20" transform="translate(1033.634766 0)"/>
      <use xlink:href="#DejaVuSans-6d" transform="translate(1065.421875 0)"/>
      <use xlink:href="#DejaVuSans-69" transform="translate(1162.833984 0)"/>
      <use xlink:href="#DejaVuSans-64" transform="translate(1190.617188 0)"/>
      <use xlink:href="#DejaVuSans-70" transform="translate(1254.09375 0)"/>
      <use xlink:href="#DejaVuSans-6f" transform="translate(1317.570312 0)"/>
      <use xlink:href="#DejaVuSans-69" transform="translate(1378.751953 0)"/>
      <use xlink:href="#DejaVuSans-6e" transform="translate(1406.535156 0)"/>
      <use xlink:href="#DejaVuSans-74" transform="translate(1469.914062 0)"/>
      <use xlink:href="#DejaVuSans-20" transform="translate(1509.123047 0)"/>
      <use xlink:href="#DejaVuSans-6e" transform="translate(1540.910156 0)"/>
      <use xlink:href="#DejaVuSans-6f" transform="translate(1604.289062 0)"/>
      <use xlink:href="#DejaVuSans-72" transform="translate(1665.470703 0)"/>
      <use xlink:href="#DejaVuSans-6d" transform="translate(1704.833984 0)"/>
      <use xlink:href="#DejaVuSans-61" transform="translate(1802.246094 0)"/>
      <use xlink:href="#DejaVuSans-6c" transform="translate(1863.525391 0)"/>
      <use xlink:href="#DejaVuSans-69" transform="translate(1891.308594 0)"/>
      <use xlink:href="#DejaVuSans-7a" transform="translate(1919.091797 0)"/>
      <use xlink:href="#DejaVuSans-65" transform="translate(1971.582031 0)"/>
      <use xlink:href="#DejaVuSans-64" transform="translate(2033.105469 0)"/>
      <use xlink:href="#DejaVuSans-20" transform="translate(2096.582031 0)"/>
      <use xlink:href="#DejaVuSans-74" transform="translate(2128.369141 0)"/>
      <use xlink:href="#DejaVuSans-6f" transform="translate(2167.578125 0)"/>
      <use xlink:href="#DejaVuSans-20" transform="translate(2228.759766 0)"/>
      <use xlink:href="#DejaVuSans-68" transform="translate(2260.546875 0)"/>
      <use xlink:href="#DejaVuSans-65" transform="translate(2323.925781 0)"/>
      <use xlink:href="#DejaVuSans-69" transform="translate(2385.449219 0)"/>
      <use xlink:href="#DejaVuSans-67" transform="translate(2413.232422 0)"/>
      <use xlink:href="#DejaVuSans-68" transform="translate(2476.708984 0)"/>
      <use xlink:href="#DejaVuSans-74" transform="translate(2540.087891 0)"/>
     </g>
    </g>
   </g>
   <g id="line2d_61">
    <path d="M 364.142277 75.512098
L 105.770848 333.883527
" clip-path="url(#pa4d2a1e41b)" style="fill: none; stroke: #8598e1; stroke-opacity: 0.8; stroke-width: 2.5; stroke-linecap: square"/>
   </g>
   <g id="line2d_62">
    <path d="M 105.770848 75.512098
L 364.142277 333.883527
" clip-path="url(#pa4d2a1e41b)" style="fill: none; stroke: #ee6666; stroke-opacity: 0.8; stroke-width: 2.5; stroke-linecap: square"/>
   </g>
   <g id="line2d_63">
    <path d="M 234.956563 333.883527
L 105.770848 75.512098
" clip-path="url(#pa4d2a1e41b)" style="fill: none; stroke: #88dd88; stroke-opacity: 0.8; stroke-width: 2.5; stroke-linecap: square"/>
   </g>
   <g id="line2d_64">
    <path d="M 234.956563 333.883527
L 364.142277 75.512098
" clip-path="url(#pa4d2a1e41b)" style="fill: none; stroke: #88dd88; stroke-opacity: 0.8; stroke-width: 2.5; stroke-linecap: square"/>
   </g>
   <g id="line2d_65">
    <path d="M 54.096563 204.697812
L 415.816563 204.697812
" clip-path="url(#pa4d2a1e41b)" style="fill: none; stroke-dasharray: 2.5,4.125; stroke-dashoffset: 0; stroke: #808080; stroke-opacity: 0.8; stroke-width: 2.5"/>
   </g>
   <g id="line2d_66">
    <path d="M 234.956563 385.557812
L 234.956563 23.837812
" clip-path="url(#pa4d2a1e41b)" style="fill: none; stroke-dasharray: 2.5,4.125; stroke-dashoffset: 0; stroke: #808080; stroke-opacity: 0.8; stroke-width: 2.5"/>
   </g>
   <g id="patch_8">
    <path d="M 54.096563 385.557812
L 54.096563 23.837812
" style="fill: none; stroke: #000000; stroke-width: 0.8; stroke-linejoin: miter; stroke-linecap: square"/>
   </g>
   <g id="patch_9">
    <path d="M 415.816563 385.557812
L 415.816563 23.837812
" style="fill: none; stroke: #000000; stroke-width: 0.8; stroke-linejoin: miter; stroke-linecap: square"/>
   </g>
   <g id="patch_10">
    <path d="M 54.096563 385.557812
L 415.816563 385.557812
" style="fill: none; stroke: #000000; stroke-width: 0.8; stroke-linejoin: miter; stroke-linecap: square"/>
   </g>
   <g id="patch_11">
    <path d="M 54.096563 23.837812
L 415.816563 23.837812
" style="fill: none; stroke: #000000; stroke-width: 0.8; stroke-linejoin: miter; stroke-linecap: square"/>
   </g>
   <g id="text_33">
    <!-- Triangulation Selection Strategy -->
    <g transform="translate(107.009688 17.837812) scale(0.14 -0.14)">
     <defs>
      <path id="DejaVuSans-Bold-54" d="M 31 4666
L 4331 4666
L 4331 3756
L 2784 3756
L 2784 0
L 1581 0
L 1581 3756
L 31 3756
L 31 4666
z
" transform="scale(0.015625)"/>
      <path id="DejaVuSans-Bold-72" d="M 3138 2547
Q 2991 2616 2845 2648
Q 2700 2681 2553 2681
Q 2122 2681 1889 2404
Q 1656 2128 1656 1613
L 1656 0
L 538 0
L 538 3500
L 1656 3500
L 1656 2925
Q 1872 3269 2151 3426
Q 2431 3584 2822 3584
Q 2878 3584 2943 3579
Q 3009 3575 3134 3559
L 3138 2547
z
" transform="scale(0.015625)"/>
      <path id="DejaVuSans-Bold-69" d="M 538 3500
L 1656 3500
L 1656 0
L 538 0
L 538 3500
z
M 538 4863
L 1656 4863
L 1656 3950
L 538 3950
L 538 4863
z
" transform="scale(0.015625)"/>
      <path id="DejaVuSans-Bold-61" d="M 2106 1575
Q 1756 1575 1579 1456
Q 1403 1338 1403 1106
Q 1403 894 1545 773
Q 1688 653 1941 653
Q 2256 653 2472 879
Q 2688 1106 2688 1447
L 2688 1575
L 2106 1575
z
M 3816 1997
L 3816 0
L 2688 0
L 2688 519
Q 2463 200 2181 54
Q 1900 -91 1497 -91
Q 953 -91 614 226
Q 275 544 275 1050
Q 275 1666 698 1953
Q 1122 2241 2028 2241
L 2688 2241
L 2688 2328
Q 2688 2594 2478 2717
Q 2269 2841 1825 2841
Q 1466 2841 1156 2769
Q 847 2697 581 2553
L 581 3406
Q 941 3494 1303 3539
Q 1666 3584 2028 3584
Q 2975 3584 3395 3211
Q 3816 2838 3816 1997
z
" transform="scale(0.015625)"/>
      <path id="DejaVuSans-Bold-6e" d="M 4056 2131
L 4056 0
L 2931 0
L 2931 347
L 2931 1631
Q 2931 2084 2911 2256
Q 2891 2428 2841 2509
Q 2775 2619 2662 2680
Q 2550 2741 2406 2741
Q 2056 2741 1856 2470
Q 1656 2200 1656 1722
L 1656 0
L 538 0
L 538 3500
L 1656 3500
L 1656 2988
Q 1909 3294 2193 3439
Q 2478 3584 2822 3584
Q 3428 3584 3742 3212
Q 4056 2841 4056 2131
z
" transform="scale(0.015625)"/>
      <path id="DejaVuSans-Bold-67" d="M 2919 594
Q 2688 288 2409 144
Q 2131 0 1766 0
Q 1125 0 706 504
Q 288 1009 288 1791
Q 288 2575 706 3076
Q 1125 3578 1766 3578
Q 2131 3578 2409 3434
Q 2688 3291 2919 2981
L 2919 3500
L 4044 3500
L 4044 353
Q 4044 -491 3511 -936
Q 2978 -1381 1966 -1381
Q 1638 -1381 1331 -1331
Q 1025 -1281 716 -1178
L 716 -306
Q 1009 -475 1290 -558
Q 1572 -641 1856 -641
Q 2406 -641 2662 -400
Q 2919 -159 2919 353
L 2919 594
z
M 2181 2772
Q 1834 2772 1640 2515
Q 1447 2259 1447 1791
Q 1447 1309 1634 1061
Q 1822 813 2181 813
Q 2531 813 2725 1069
Q 2919 1325 2919 1791
Q 2919 2259 2725 2515
Q 2531 2772 2181 2772
z
" transform="scale(0.015625)"/>
      <path id="DejaVuSans-Bold-75" d="M 500 1363
L 500 3500
L 1625 3500
L 1625 3150
Q 1625 2866 1622 2436
Q 1619 2006 1619 1863
Q 1619 1441 1641 1255
Q 1663 1069 1716 984
Q 1784 875 1895 815
Q 2006 756 2150 756
Q 2500 756 2700 1025
Q 2900 1294 2900 1772
L 2900 3500
L 4019 3500
L 4019 0
L 2900 0
L 2900 506
Q 2647 200 2364 54
Q 2081 -91 1741 -91
Q 1134 -91 817 281
Q 500 653 500 1363
z
" transform="scale(0.015625)"/>
      <path id="DejaVuSans-Bold-6c" d="M 538 4863
L 1656 4863
L 1656 0
L 538 0
L 538 4863
z
" transform="scale(0.015625)"/>
      <path id="DejaVuSans-Bold-74" d="M 1759 4494
L 1759 3500
L 2913 3500
L 2913 2700
L 1759 2700
L 1759 1216
Q 1759 972 1856 886
Q 1953 800 2241 800
L 2816 800
L 2816 0
L 1856 0
Q 1194 0 917 276
Q 641 553 641 1216
L 641 2700
L 84 2700
L 84 3500
L 641 3500
L 641 4494
L 1759 4494
z
" transform="scale(0.015625)"/>
      <path id="DejaVuSans-Bold-6f" d="M 2203 2784
Q 1831 2784 1636 2517
Q 1441 2250 1441 1747
Q 1441 1244 1636 976
Q 1831 709 2203 709
Q 2569 709 2762 976
Q 2956 1244 2956 1747
Q 2956 2250 2762 2517
Q 2569 2784 2203 2784
z
M 2203 3584
Q 3106 3584 3614 3096
Q 4122 2609 4122 1747
Q 4122 884 3614 396
Q 3106 -91 2203 -91
Q 1297 -91 786 396
Q 275 884 275 1747
Q 275 2609 786 3096
Q 1297 3584 2203 3584
z
" transform="scale(0.015625)"/>
      <path id="DejaVuSans-Bold-20" transform="scale(0.015625)"/>
      <path id="DejaVuSans-Bold-53" d="M 3834 4519
L 3834 3531
Q 3450 3703 3084 3790
Q 2719 3878 2394 3878
Q 1963 3878 1756 3759
Q 1550 3641 1550 3391
Q 1550 3203 1689 3098
Q 1828 2994 2194 2919
L 2706 2816
Q 3484 2659 3812 2340
Q 4141 2022 4141 1434
Q 4141 663 3683 286
Q 3225 -91 2284 -91
Q 1841 -91 1394 -6
Q 947 78 500 244
L 500 1259
Q 947 1022 1364 901
Q 1781 781 2169 781
Q 2563 781 2772 912
Q 2981 1044 2981 1288
Q 2981 1506 2839 1625
Q 2697 1744 2272 1838
L 1806 1941
Q 1106 2091 782 2419
Q 459 2747 459 3303
Q 459 4000 909 4375
Q 1359 4750 2203 4750
Q 2588 4750 2994 4692
Q 3400 4634 3834 4519
z
" transform="scale(0.015625)"/>
      <path id="DejaVuSans-Bold-65" d="M 4031 1759
L 4031 1441
L 1416 1441
Q 1456 1047 1700 850
Q 1944 653 2381 653
Q 2734 653 3104 758
Q 3475 863 3866 1075
L 3866 213
Q 3469 63 3072 -14
Q 2675 -91 2278 -91
Q 1328 -91 801 392
Q 275 875 275 1747
Q 275 2603 792 3093
Q 1309 3584 2216 3584
Q 3041 3584 3536 3087
Q 4031 2591 4031 1759
z
M 2881 2131
Q 2881 2450 2695 2645
Q 2509 2841 2209 2841
Q 1884 2841 1681 2658
Q 1478 2475 1428 2131
L 2881 2131
z
" transform="scale(0.015625)"/>
      <path id="DejaVuSans-Bold-63" d="M 3366 3391
L 3366 2478
Q 3138 2634 2908 2709
Q 2678 2784 2431 2784
Q 1963 2784 1702 2511
Q 1441 2238 1441 1747
Q 1441 1256 1702 982
Q 1963 709 2431 709
Q 2694 709 2930 787
Q 3166 866 3366 1019
L 3366 103
Q 3103 6 2833 -42
Q 2563 -91 2291 -91
Q 1344 -91 809 395
Q 275 881 275 1747
Q 275 2613 809 3098
Q 1344 3584 2291 3584
Q 2566 3584 2833 3536
Q 3100 3488 3366 3391
z
" transform="scale(0.015625)"/>
      <path id="DejaVuSans-Bold-79" d="M 78 3500
L 1197 3500
L 2138 1125
L 2938 3500
L 4056 3500
L 2584 -331
Q 2363 -916 2067 -1148
Q 1772 -1381 1288 -1381
L 641 -1381
L 641 -647
L 991 -647
Q 1275 -647 1404 -556
Q 1534 -466 1606 -231
L 1638 -134
L 78 3500
z
" transform="scale(0.015625)"/>
     </defs>
     <use xlink:href="#DejaVuSans-Bold-54"/>
     <use xlink:href="#DejaVuSans-Bold-72" transform="translate(57.212891 0)"/>
     <use xlink:href="#DejaVuSans-Bold-69" transform="translate(106.529297 0)"/>
     <use xlink:href="#DejaVuSans-Bold-61" transform="translate(140.806641 0)"/>
     <use xlink:href="#DejaVuSans-Bold-6e" transform="translate(208.287109 0)"/>
     <use xlink:href="#DejaVuSans-Bold-67" transform="translate(279.478516 0)"/>
     <use xlink:href="#DejaVuSans-Bold-75" transform="translate(351.060547 0)"/>
     <use xlink:href="#DejaVuSans-Bold-6c" transform="translate(422.251953 0)"/>
     <use xlink:href="#DejaVuSans-Bold-61" transform="translate(456.529297 0)"/>
     <use xlink:href="#DejaVuSans-Bold-74" transform="translate(524.009766 0)"/>
     <use xlink:href="#DejaVuSans-Bold-69" transform="translate(571.8125 0)"/>
     <use xlink:href="#DejaVuSans-Bold-6f" transform="translate(606.089844 0)"/>
     <use xlink:href="#DejaVuSans-Bold-6e" transform="translate(674.791016 0)"/>
     <use xlink:href="#DejaVuSans-Bold-20" transform="translate(745.982422 0)"/>
     <use xlink:href="#DejaVuSans-Bold-53" transform="translate(780.796875 0)"/>
     <use xlink:href="#DejaVuSans-Bold-65" transform="translate(852.818359 0)"/>
     <use xlink:href="#DejaVuSans-Bold-6c" transform="translate(920.640625 0)"/>
     <use xlink:href="#DejaVuSans-Bold-65" transform="translate(954.917969 0)"/>
     <use xlink:href="#DejaVuSans-Bold-63" transform="translate(1022.740234 0)"/>
     <use xlink:href="#DejaVuSans-Bold-74" transform="translate(1082.017578 0)"/>
     <use xlink:href="#DejaVuSans-Bold-69" transform="translate(1129.820312 0)"/>
     <use xlink:href="#DejaVuSans-Bold-6f" transform="translate(1164.097656 0)"/>
     <use xlink:href="#DejaVuSans-Bold-6e" transform="translate(1232.798828 0)"/>
     <use xlink:href="#DejaVuSans-Bold-20" transform="translate(1303.990234 0)"/>
     <use xlink:href="#DejaVuSans-Bold-53" transform="translate(1338.804688 0)"/>
     <use xlink:href="#DejaVuSans-Bold-74" transform="translate(1410.826172 0)"/>
     <use xlink:href="#DejaVuSans-Bold-72" transform="translate(1458.628906 0)"/>
     <use xlink:href="#DejaVuSans-Bold-61" transform="translate(1507.945312 0)"/>
     <use xlink:href="#DejaVuSans-Bold-74" transform="translate(1575.425781 0)"/>
     <use xlink:href="#DejaVuSans-Bold-65" transform="translate(1623.228516 0)"/>
     <use xlink:href="#DejaVuSans-Bold-67" transform="translate(1691.050781 0)"/>
     <use xlink:href="#DejaVuSans-Bold-79" transform="translate(1762.632812 0)"/>
    </g>
   </g>
   <g id="legend_1">
    <g id="patch_12">
     <path d="M 432.050963 252.232187
L 587.460338 252.232187
Q 589.460338 252.232187 589.460338 250.232187
L 589.460338 163.163437
Q 589.460338 161.163437 587.460338 161.163437
L 432.050963 161.163437
Q 430.050963 161.163437 430.050963 163.163437
L 430.050963 250.232187
Q 430.050963 252.232187 432.050963 252.232187
z
" style="fill: #4d4d4d; opacity: 0.5; stroke: #4d4d4d; stroke-linejoin: miter"/>
    </g>
    <g id="patch_13">
     <path d="M 430.050963 250.232187
L 585.460338 250.232187
Q 587.460338 250.232187 587.460338 248.232187
L 587.460338 161.163437
Q 587.460338 159.163437 585.460338 159.163437
L 430.050963 159.163437
Q 428.050963 159.163437 428.050963 161.163437
L 428.050963 248.232187
Q 428.050963 250.232187 430.050963 250.232187
z
" style="fill: #ffffff; stroke: #cccccc; stroke-linejoin: miter"/>
    </g>
    <g id="patch_14">
     <path d="M 432.050963 170.761875
L 452.050963 170.761875
L 452.050963 163.761875
L 432.050963 163.761875
z
" style="fill: #8598e1; stroke: #8598e1; stroke-linejoin: miter"/>
    </g>
    <g id="text_34">
     <!-- Forward slash (/) regions -->
     <g transform="translate(460.050963 170.761875) scale(0.1 -0.1)">
      <defs>
       <path id="DejaVuSans-46" d="M 628 4666
L 3309 4666
L 3309 4134
L 1259 4134
L 1259 2759
L 3109 2759
L 3109 2228
L 1259 2228
L 1259 0
L 628 0
L 628 4666
z
" transform="scale(0.015625)"/>
       <path id="DejaVuSans-28" d="M 1984 4856
Q 1566 4138 1362 3434
Q 1159 2731 1159 2009
Q 1159 1288 1364 580
Q 1569 -128 1984 -844
L 1484 -844
Q 1016 -109 783 600
Q 550 1309 550 2009
Q 550 2706 781 3412
Q 1013 4119 1484 4856
L 1984 4856
z
" transform="scale(0.015625)"/>
       <path id="DejaVuSans-2f" d="M 1625 4666
L 2156 4666
L 531 -594
L 0 -594
L 1625 4666
z
" transform="scale(0.015625)"/>
       <path id="DejaVuSans-29" d="M 513 4856
L 1013 4856
Q 1481 4119 1714 3412
Q 1947 2706 1947 2009
Q 1947 1309 1714 600
Q 1481 -109 1013 -844
L 513 -844
Q 928 -128 1133 580
Q 1338 1288 1338 2009
Q 1338 2731 1133 3434
Q 928 4138 513 4856
z
" transform="scale(0.015625)"/>
      </defs>
      <use xlink:href="#DejaVuSans-46"/>
      <use xlink:href="#DejaVuSans-6f" transform="translate(53.894531 0)"/>
      <use xlink:href="#DejaVuSans-72" transform="translate(115.076172 0)"/>
      <use xlink:href="#DejaVuSans-77" transform="translate(156.189453 0)"/>
      <use xlink:href="#DejaVuSans-61" transform="translate(237.976562 0)"/>
      <use xlink:href="#DejaVuSans-72" transform="translate(299.255859 0)"/>
      <use xlink:href="#DejaVuSans-64" transform="translate(338.619141 0)"/>
      <use xlink:href="#DejaVuSans-20" transform="translate(402.095703 0)"/>
      <use xlink:href="#DejaVuSans-73" transform="translate(433.882812 0)"/>
      <use xlink:href="#DejaVuSans-6c" transform="translate(485.982422 0)"/>
      <use xlink:href="#DejaVuSans-61" transform="translate(513.765625 0)"/>
      <use xlink:href="#DejaVuSans-73" transform="translate(575.044922 0)"/>
      <use xlink:href="#DejaVuSans-68" transform="translate(627.144531 0)"/>
      <use xlink:href="#DejaVuSans-20" transform="translate(690.523438 0)"/>
      <use xlink:href="#DejaVuSans-28" transform="translate(722.310547 0)"/>
      <use xlink:href="#DejaVuSans-2f" transform="translate(761.324219 0)"/>
      <use xlink:href="#DejaVuSans-29" transform="translate(795.015625 0)"/>
      <use xlink:href="#DejaVuSans-20" transform="translate(834.029297 0)"/>
      <use xlink:href="#DejaVuSans-72" transform="translate(865.816406 0)"/>
      <use xlink:href="#DejaVuSans-65" transform="translate(904.679688 0)"/>
      <use xlink:href="#DejaVuSans-67" transform="translate(966.203125 0)"/>
      <use xlink:href="#DejaVuSans-69" transform="translate(1029.679688 0)"/>
      <use xlink:href="#DejaVuSans-6f" transform="translate(1057.462891 0)"/>
      <use xlink:href="#DejaVuSans-6e" transform="translate(1118.644531 0)"/>
      <use xlink:href="#DejaVuSans-73" transform="translate(1182.023438 0)"/>
     </g>
    </g>
    <g id="patch_15">
     <path d="M 432.050963 185.44
L 452.050963 185.44
L 452.050963 178.44
L 432.050963 178.44
z
" style="fill: #ee6666; stroke: #ee6666; stroke-linejoin: miter"/>
    </g>
    <g id="text_35">
     <!-- Backslash (\) regions -->
     <g transform="translate(460.050963 185.44) scale(0.1 -0.1)">
      <defs>
       <path id="DejaVuSans-42" d="M 1259 2228
L 1259 519
L 2272 519
Q 2781 519 3026 730
Q 3272 941 3272 1375
Q 3272 1813 3026 2020
Q 2781 2228 2272 2228
L 1259 2228
z
M 1259 4147
L 1259 2741
L 2194 2741
Q 2656 2741 2882 2914
Q 3109 3088 3109 3444
Q 3109 3797 2882 3972
Q 2656 4147 2194 4147
L 1259 4147
z
M 628 4666
L 2241 4666
Q 2963 4666 3353 4366
Q 3744 4066 3744 3513
Q 3744 3084 3544 2831
Q 3344 2578 2956 2516
Q 3422 2416 3680 2098
Q 3938 1781 3938 1306
Q 3938 681 3513 340
Q 3088 0 2303 0
L 628 0
L 628 4666
z
" transform="scale(0.015625)"/>
       <path id="DejaVuSans-5c" d="M 531 4666
L 2156 -594
L 1625 -594
L 0 4666
L 531 4666
z
" transform="scale(0.015625)"/>
      </defs>
      <use xlink:href="#DejaVuSans-42"/>
      <use xlink:href="#DejaVuSans-61" transform="translate(68.603516 0)"/>
      <use xlink:href="#DejaVuSans-63" transform="translate(129.882812 0)"/>
      <use xlink:href="#DejaVuSans-6b" transform="translate(184.863281 0)"/>
      <use xlink:href="#DejaVuSans-73" transform="translate(242.773438 0)"/>
      <use xlink:href="#DejaVuSans-6c" transform="translate(294.873047 0)"/>
      <use xlink:href="#DejaVuSans-61" transform="translate(322.65625 0)"/>
      <use xlink:href="#DejaVuSans-73" transform="translate(383.935547 0)"/>
      <use xlink:href="#DejaVuSans-68" transform="translate(436.035156 0)"/>
      <use xlink:href="#DejaVuSans-20" transform="translate(499.414062 0)"/>
      <use xlink:href="#DejaVuSans-28" transform="translate(531.201172 0)"/>
      <use xlink:href="#DejaVuSans-5c" transform="translate(570.214844 0)"/>
      <use xlink:href="#DejaVuSans-29" transform="translate(603.90625 0)"/>
      <use xlink:href="#DejaVuSans-20" transform="translate(642.919922 0)"/>
      <use xlink:href="#DejaVuSans-72" transform="translate(674.707031 0)"/>
      <use xlink:href="#DejaVuSans-65" transform="translate(713.570312 0)"/>
      <use xlink:href="#DejaVuSans-67" transform="translate(775.09375 0)"/>
      <use xlink:href="#DejaVuSans-69" transform="translate(838.570312 0)"/>
      <use xlink:href="#DejaVuSans-6f" transform="translate(866.353516 0)"/>
      <use xlink:href="#DejaVuSans-6e" transform="translate(927.535156 0)"/>
      <use xlink:href="#DejaVuSans-73" transform="translate(990.914062 0)"/>
     </g>
    </g>
    <g id="patch_16">
     <path d="M 432.050963 200.118125
L 452.050963 200.118125
L 452.050963 193.118125
L 432.050963 193.118125
z
" style="fill: #88dd88; stroke: #88dd88; stroke-linejoin: miter"/>
    </g>
    <g id="text_36">
     <!-- V-pattern region -->
     <g transform="translate(460.050963 200.118125) scale(0.1 -0.1)">
      <defs>
       <path id="DejaVuSans-56" d="M 1831 0
L 50 4666
L 709 4666
L 2188 738
L 3669 4666
L 4325 4666
L 2547 0
L 1831 0
z
" transform="scale(0.015625)"/>
       <path id="DejaVuSans-2d" d="M 313 2009
L 1997 2009
L 1997 1497
L 313 1497
L 313 2009
z
" transform="scale(0.015625)"/>
      </defs>
      <use xlink:href="#DejaVuSans-56"/>
      <use xlink:href="#DejaVuSans-2d" transform="translate(62.533203 0)"/>
      <use xlink:href="#DejaVuSans-70" transform="translate(98.617188 0)"/>
      <use xlink:href="#DejaVuSans-61" transform="translate(162.09375 0)"/>
      <use xlink:href="#DejaVuSans-74" transform="translate(223.373047 0)"/>
      <use xlink:href="#DejaVuSans-74" transform="translate(262.582031 0)"/>
      <use xlink:href="#DejaVuSans-65" transform="translate(301.791016 0)"/>
      <use xlink:href="#DejaVuSans-72" transform="translate(363.314453 0)"/>
      <use xlink:href="#DejaVuSans-6e" transform="translate(402.677734 0)"/>
      <use xlink:href="#DejaVuSans-20" transform="translate(466.056641 0)"/>
      <use xlink:href="#DejaVuSans-72" transform="translate(497.84375 0)"/>
      <use xlink:href="#DejaVuSans-65" transform="translate(536.707031 0)"/>
      <use xlink:href="#DejaVuSans-67" transform="translate(598.230469 0)"/>
      <use xlink:href="#DejaVuSans-69" transform="translate(661.707031 0)"/>
      <use xlink:href="#DejaVuSans-6f" transform="translate(689.490234 0)"/>
      <use xlink:href="#DejaVuSans-6e" transform="translate(750.671875 0)"/>
     </g>
    </g>
    <g id="line2d_67">
     <path d="M 432.050963 211.29625
L 442.050963 211.29625
L 452.050963 211.29625
" style="fill: none; stroke: #8598e1; stroke-opacity: 0.8; stroke-width: 2; stroke-linecap: square"/>
    </g>
    <g id="text_37">
     <!-- / interior edge -->
     <g transform="translate(460.050963 214.79625) scale(0.1 -0.1)">
      <use xlink:href="#DejaVuSans-2f"/>
      <use xlink:href="#DejaVuSans-20" transform="translate(33.691406 0)"/>
      <use xlink:href="#DejaVuSans-69" transform="translate(65.478516 0)"/>
      <use xlink:href="#DejaVuSans-6e" transform="translate(93.261719 0)"/>
      <use xlink:href="#DejaVuSans-74" transform="translate(156.640625 0)"/>
      <use xlink:href="#DejaVuSans-65" transform="translate(195.849609 0)"/>
      <use xlink:href="#DejaVuSans-72" transform="translate(257.373047 0)"/>
      <use xlink:href="#DejaVuSans-69" transform="translate(298.486328 0)"/>
      <use xlink:href="#DejaVuSans-6f" transform="translate(326.269531 0)"/>
      <use xlink:href="#DejaVuSans-72" transform="translate(387.451172 0)"/>
      <use xlink:href="#DejaVuSans-20" transform="translate(428.564453 0)"/>
      <use xlink:href="#DejaVuSans-65" transform="translate(460.351562 0)"/>
      <use xlink:href="#DejaVuSans-64" transform="translate(521.875 0)"/>
      <use xlink:href="#DejaVuSans-67" transform="translate(585.351562 0)"/>
      <use xlink:href="#DejaVuSans-65" transform="translate(648.828125 0)"/>
     </g>
    </g>
    <g id="line2d_68">
     <path d="M 432.050963 225.974375
L 442.050963 225.974375
L 452.050963 225.974375
" style="fill: none; stroke: #ee6666; stroke-opacity: 0.8; stroke-width: 2; stroke-linecap: square"/>
    </g>
    <g id="text_38">
     <!-- \ interior edge -->
     <g transform="translate(460.050963 229.474375) scale(0.1 -0.1)">
      <use xlink:href="#DejaVuSans-5c"/>
      <use xlink:href="#DejaVuSans-20" transform="translate(33.691406 0)"/>
      <use xlink:href="#DejaVuSans-69" transform="translate(65.478516 0)"/>
      <use xlink:href="#DejaVuSans-6e" transform="translate(93.261719 0)"/>
      <use xlink:href="#DejaVuSans-74" transform="translate(156.640625 0)"/>
      <use xlink:href="#DejaVuSans-65" transform="translate(195.849609 0)"/>
      <use xlink:href="#DejaVuSans-72" transform="translate(257.373047 0)"/>
      <use xlink:href="#DejaVuSans-69" transform="translate(298.486328 0)"/>
      <use xlink:href="#DejaVuSans-6f" transform="translate(326.269531 0)"/>
      <use xlink:href="#DejaVuSans-72" transform="translate(387.451172 0)"/>
      <use xlink:href="#DejaVuSans-20" transform="translate(428.564453 0)"/>
      <use xlink:href="#DejaVuSans-65" transform="translate(460.351562 0)"/>
      <use xlink:href="#DejaVuSans-64" transform="translate(521.875 0)"/>
      <use xlink:href="#DejaVuSans-67" transform="translate(585.351562 0)"/>
      <use xlink:href="#DejaVuSans-65" transform="translate(648.828125 0)"/>
     </g>
    </g>
    <g id="line2d_69">
     <path d="M 432.050963 240.6525
L 442.050963 240.6525
L 452.050963 240.6525
" style="fill: none; stroke: #88dd88; stroke-opacity: 0.8; stroke-width: 2; stroke-linecap: square"/>
    </g>
    <g id="text_39">
     <!-- V interior edges -->
     <g transform="translate(460.050963 244.1525) scale(0.1 -0.1)">
      <use xlink:href="#DejaVuSans-56"/>
      <use xlink:href="#DejaVuSans-20" transform="translate(68.408203 0)"/>
      <use xlink:href="#DejaVuSans-69" transform="translate(100.195312 0)"/>
      <use xlink:href="#DejaVuSans-6e" transform="translate(127.978516 0)"/>
      <use xlink:href="#DejaVuSans-74" transform="translate(191.357422 0)"/>
      <use xlink:href="#DejaVuSans-65" transform="translate(230.566406 0)"/>
      <use xlink:href="#DejaVuSans-72" transform="translate(292.089844 0)"/>
      <use xlink:href="#DejaVuSans-69" transform="translate(333.203125 0)"/>
      <use xlink:href="#DejaVuSans-6f" transform="translate(360.986328 0)"/>
      <use xlink:href="#DejaVuSans-72" transform="translate(422.167969 0)"/>
      <use xlink:href="#DejaVuSans-20" transform="translate(463.28125 0)"/>
      <use xlink:href="#DejaVuSans-65" transform="translate(495.068359 0)"/>
      <use xlink:href="#DejaVuSans-64" transform="translate(556.591797 0)"/>
      <use xlink:href="#DejaVuSans-67" transform="translate(620.068359 0)"/>
      <use xlink:href="#DejaVuSans-65" transform="translate(683.544922 0)"/>
      <use xlink:href="#DejaVuSans-73" transform="translate(745.068359 0)"/>
     </g>
    </g>
   </g>
  </g>
 </g>
 <defs>
  <clipPath id="pa4d2a1e41b">
   <rect x="54.096563" y="23.837812" width="361.72" height="361.72"/>
  </clipPath>
 </defs>
</svg>
