<?xml version="1.0" encoding="utf-8" standalone="no"?>
<!DOCTYPE svg PUBLIC "-//W3C//DTD SVG 1.1//EN"
  "http://www.w3.org/Graphics/SVG/1.1/DTD/svg11.dtd">
<svg xmlns:xlink="http://www.w3.org/1999/xlink" width="592.483387pt" height="422.889687pt" viewBox="0 0 592.483387 422.889687" xmlns="http://www.w3.org/2000/svg" version="1.1">
 <metadata>
  <rdf:RDF xmlns:dc="http://purl.org/dc/elements/1.1/" xmlns:cc="http://creativecommons.org/ns#" xmlns:rdf="http://www.w3.org/1999/02/22-rdf-syntax-ns#">
   <cc:Work>
    <dc:type rdf:resource="http://purl.org/dc/dcmitype/StillImage"/>
    <dc:format>image/svg+xml</dc:format>
    <dc:creator>
     <cc:Agent>
      <dc:title>Matplotlib v3.10.1, https://matplotlib.org/</dc:title>
     </cc:Agent>
    </dc:creator>
   </cc:Work>
  </rdf:RDF>
 </metadata>
 <defs>
  <style type="text/css">*{stroke-linejoin: round; stroke-linecap: butt}</style>
 </defs>
 <g id="id_054">
  <g id="id_128">
   <path d="M 0 422.889687
L 592.483387 422.889687
L 592.483387 0
L 0 0
z
" style="fill: #ffffff"/>
  </g>
  <g id="id_053">
   <g id="id_136">
    <path d="M 54.122813 383.397812
L 413.682812 383.397812
L 413.682812 23.837812
L 54.122813 23.837812
z
" style="fill: #ffffff"/>
   </g>
   <g id="id_137">
    <path d="M 54.122813 383.397812
L 413.682812 383.397812
L 413.682812 23.837812
L 54.122813 23.837812
z
" clip-path="url(#id_127)" style="fill: #8598e1"/>
   </g>
   <g id="id_138">
    <path d="M 233.902812 203.617812
L 387.999955 203.617812
L 387.999955 49.52067
L 233.902812 49.52067
z
" clip-path="url(#id_127)" style="fill: #ee6666"/>
   </g>
   <g id="id_139">
    <path d="M 79.80567 357.714955
L 233.902812 357.714955
L 233.902812 203.617812
L 79.80567 203.617812
z
" clip-path="url(#id_127)" style="fill: #ee6666"/>
   </g>
   <g id="id_140">
    <path d="M 233.902812 229.30067
C 240.713986 229.30067 247.247108 226.594562 252.063335 221.778335
C 256.879562 216.962108 259.58567 210.428986 259.58567 203.617812
C 259.58567 196.806639 256.879562 190.273517 252.063335 185.45729
C 247.247108 180.641063 240.713986 177.934955 233.902812 177.934955
C 227.091639 177.934955 220.558517 180.641063 215.74229 185.45729
C 210.926063 190.273517 208.219955 196.806639 208.219955 203.617812
C 208.219955 210.428986 210.926063 216.962108 215.74229 221.778335
C 220.558517 226.594562 227.091639 229.30067 233.902812 229.30067
z
" clip-path="url(#id_127)" style="fill: #88dd88"/>
   </g>
   <g id="id_141">
    <path d="M 105.488527 332.032098
L 362.317098 332.032098
L 362.317098 75.203527
L 105.488527 75.203527
L 105.488527 332.032098
z
" clip-path="url(#id_127)" style="fill: none; stroke: #000000; stroke-width: 2.5; stroke-linejoin: miter"/>
   </g>
   <g id="id_125">
    <g id="id_183">
     <g id="id_056">
      <path d="M 54.122813 383.397812
L 54.122813 23.837812
" clip-path="url(#id_127)" style="fill: none; stroke: #b0b0b0; stroke-opacity: 0.6; stroke-width: 1.2; stroke-linecap: square"/>
     </g>
     <g id="id_067">
      <defs>
       <path id="id_124" d="M 0 0
L 0 3.5
" style="stroke: #000000; stroke-width: 0.8"/>
      </defs>
      <g>
       <use xlink:href="#id_124" x="54.122813" y="383.397812" style="stroke: #000000; stroke-width: 0.8"/>
      </g>
     </g>
     <g id="id_144">
      <!-- −0.7 -->
      <g transform="translate(41.981406 397.99625) scale(0.1 -0.1)">
       <defs>
        <path id="id_001" d="M 678 2272
L 4684 2272
L 4684 1741
L 678 1741
L 678 2272
z
" transform="scale(0.015625)"/>
        <path id="id_007" d="M 2034 4250
Q 1547 4250 1301 3770
Q 1056 3291 1056 2328
Q 1056 1369 1301 889
Q 1547 409 2034 409
Q 2525 409 2770 889
Q 3016 1369 3016 2328
Q 3016 3291 2770 3770
Q 2525 4250 2034 4250
z
M 2034 4750
Q 2819 4750 3233 4129
Q 3647 3509 3647 2328
Q 3647 1150 3233 529
Q 2819 -91 2034 -91
Q 1250 -91 836 529
Q 422 1150 422 2328
Q 422 3509 836 4129
Q 1250 4750 2034 4750
z
" transform="scale(0.015625)"/>
        <path id="id_005" d="M 684 794
L 1344 794
L 1344 0
L 684 0
L 684 794
z
" transform="scale(0.015625)"/>
        <path id="id_014" d="M 525 4666
L 3525 4666
L 3525 4397
L 1831 0
L 1172 0
L 2766 4134
L 525 4134
L 525 4666
z
" transform="scale(0.015625)"/>
       </defs>
       <use xlink:href="#id_001"/>
       <use xlink:href="#id_007" transform="translate(83.789062 0)"/>
       <use xlink:href="#id_005" transform="translate(147.412109 0)"/>
       <use xlink:href="#id_014" transform="translate(179.199219 0)"/>
      </g>
     </g>
    </g>
    <g id="id_190">
     <g id="id_078">
      <path d="M 79.80567 383.397812
L 79.80567 23.837812
" clip-path="url(#id_127)" style="fill: none; stroke: #b0b0b0; stroke-opacity: 0.6; stroke-width: 1.2; stroke-linecap: square"/>
     </g>
     <g id="id_089">
      <g>
       <use xlink:href="#id_124" x="79.80567" y="383.397812" style="stroke: #000000; stroke-width: 0.8"/>
      </g>
     </g>
     <g id="id_155">
      <!-- −0.6 -->
      <g transform="translate(67.664263 397.99625) scale(0.1 -0.1)">
       <defs>
        <path id="id_013" d="M 2113 2584
Q 1688 2584 1439 2293
Q 1191 2003 1191 1497
Q 1191 994 1439 701
Q 1688 409 2113 409
Q 2538 409 2786 701
Q 3034 994 3034 1497
Q 3034 2003 2786 2293
Q 2538 2584 2113 2584
z
M 3366 4563
L 3366 3988
Q 3128 4100 2886 4159
Q 2644 4219 2406 4219
Q 1781 4219 1451 3797
Q 1122 3375 1075 2522
Q 1259 2794 1537 2939
Q 1816 3084 2150 3084
Q 2853 3084 3261 2657
Q 3669 2231 3669 1497
Q 3669 778 3244 343
Q 2819 -91 2113 -91
Q 1303 -91 875 529
Q 447 1150 447 2328
Q 447 3434 972 4092
Q 1497 4750 2381 4750
Q 2619 4750 2861 4703
Q 3103 4656 3366 4563
z
" transform="scale(0.015625)"/>
       </defs>
       <use xlink:href="#id_001"/>
       <use xlink:href="#id_007" transform="translate(83.789062 0)"/>
       <use xlink:href="#id_005" transform="translate(147.412109 0)"/>
       <use xlink:href="#id_013" transform="translate(179.199219 0)"/>
      </g>
     </g>
    </g>
    <g id="id_191">
     <g id="id_100">
      <path d="M 105.488527 383.397812
L 105.488527 23.837812
" clip-path="url(#id_127)" style="fill: none; stroke: #b0b0b0; stroke-opacity: 0.6; stroke-width: 1.2; stroke-linecap: square"/>
     </g>
     <g id="id_111">
      <g>
       <use xlink:href="#id_124" x="105.488527" y="383.397812" style="stroke: #000000; stroke-width: 0.8"/>
      </g>
     </g>
     <g id="id_166">
      <!-- −0.5 -->
      <g transform="translate(93.347121 397.99625) scale(0.1 -0.1)">
       <defs>
        <path id="id_012" d="M 691 4666
L 3169 4666
L 3169 4134
L 1269 4134
L 1269 2991
Q 1406 3038 1543 3061
Q 1681 3084 1819 3084
Q 2600 3084 3056 2656
Q 3513 2228 3513 1497
Q 3513 744 3044 326
Q 2575 -91 1722 -91
Q 1428 -91 1123 -41
Q 819 9 494 109
L 494 744
Q 775 591 1075 516
Q 1375 441 1709 441
Q 2250 441 2565 725
Q 2881 1009 2881 1497
Q 2881 1984 2565 2268
Q 2250 2553 1709 2553
Q 1456 2553 1204 2497
Q 953 2441 691 2322
L 691 4666
z
" transform="scale(0.015625)"/>
       </defs>
       <use xlink:href="#id_001"/>
       <use xlink:href="#id_007" transform="translate(83.789062 0)"/>
       <use xlink:href="#id_005" transform="translate(147.412109 0)"/>
       <use xlink:href="#id_012" transform="translate(179.199219 0)"/>
      </g>
     </g>
    </g>
    <g id="id_192">
     <g id="id_120">
      <path d="M 131.171384 383.397812
L 131.171384 23.837812
" clip-path="url(#id_127)" style="fill: none; stroke: #b0b0b0; stroke-opacity: 0.6; stroke-width: 1.2; stroke-linecap: square"/>
     </g>
     <g id="id_121">
      <g>
       <use xlink:href="#id_124" x="131.171384" y="383.397812" style="stroke: #000000; stroke-width: 0.8"/>
      </g>
     </g>
     <g id="id_177">
      <!-- −0.4 -->
      <g transform="translate(119.029978 397.99625) scale(0.1 -0.1)">
       <defs>
        <path id="id_011" d="M 2419 4116
L 825 1625
L 2419 1625
L 2419 4116
z
M 2253 4666
L 3047 4666
L 3047 1625
L 3713 1625
L 3713 1100
L 3047 1100
L 3047 0
L 2419 0
L 2419 1100
L 313 1100
L 313 1709
L 2253 4666
z
" transform="scale(0.015625)"/>
       </defs>
       <use xlink:href="#id_001"/>
       <use xlink:href="#id_007" transform="translate(83.789062 0)"/>
       <use xlink:href="#id_005" transform="translate(147.412109 0)"/>
       <use xlink:href="#id_011" transform="translate(179.199219 0)"/>
      </g>
     </g>
    </g>
    <g id="id_193">
     <g id="id_122">
      <path d="M 156.854241 383.397812
L 156.854241 23.837812
" clip-path="url(#id_127)" style="fill: none; stroke: #b0b0b0; stroke-opacity: 0.6; stroke-width: 1.2; stroke-linecap: square"/>
     </g>
     <g id="id_057">
      <g>
       <use xlink:href="#id_124" x="156.854241" y="383.397812" style="stroke: #000000; stroke-width: 0.8"/>
      </g>
     </g>
     <g id="id_178">
      <!-- −0.3 -->
      <g transform="translate(144.712835 397.99625) scale(0.1 -0.1)">
       <defs>
        <path id="id_010" d="M 2597 2516
Q 3050 2419 3304 2112
Q 3559 1806 3559 1356
Q 3559 666 3084 287
Q 2609 -91 1734 -91
Q 1441 -91 1130 -33
Q 819 25 488 141
L 488 750
Q 750 597 1062 519
Q 1375 441 1716 441
Q 2309 441 2620 675
Q 2931 909 2931 1356
Q 2931 1769 2642 2001
Q 2353 2234 1838 2234
L 1294 2234
L 1294 2753
L 1863 2753
Q 2328 2753 2575 2939
Q 2822 3125 2822 3475
Q 2822 3834 2567 4026
Q 2313 4219 1838 4219
Q 1578 4219 1281 4162
Q 984 4106 628 3988
L 628 4550
Q 988 4650 1302 4700
Q 1616 4750 1894 4750
Q 2613 4750 3031 4423
Q 3450 4097 3450 3541
Q 3450 3153 3228 2886
Q 3006 2619 2597 2516
z
" transform="scale(0.015625)"/>
       </defs>
       <use xlink:href="#id_001"/>
       <use xlink:href="#id_007" transform="translate(83.789062 0)"/>
       <use xlink:href="#id_005" transform="translate(147.412109 0)"/>
       <use xlink:href="#id_010" transform="translate(179.199219 0)"/>
      </g>
     </g>
    </g>
    <g id="id_194">
     <g id="id_058">
      <path d="M 182.537098 383.397812
L 182.537098 23.837812
" clip-path="url(#id_127)" style="fill: none; stroke: #b0b0b0; stroke-opacity: 0.6; stroke-width: 1.2; stroke-linecap: square"/>
     </g>
     <g id="id_059">
      <g>
       <use xlink:href="#id_124" x="182.537098" y="383.397812" style="stroke: #000000; stroke-width: 0.8"/>
      </g>
     </g>
     <g id="id_179">
      <!-- −0.2 -->
      <g transform="translate(170.395692 397.99625) scale(0.1 -0.1)">
       <defs>
        <path id="id_009" d="M 1228 531
L 3431 531
L 3431 0
L 469 0
L 469 531
Q 828 903 1448 1529
Q 2069 2156 2228 2338
Q 2531 2678 2651 2914
Q 2772 3150 2772 3378
Q 2772 3750 2511 3984
Q 2250 4219 1831 4219
Q 1534 4219 1204 4116
Q 875 4013 500 3803
L 500 4441
Q 881 4594 1212 4672
Q 1544 4750 1819 4750
Q 2544 4750 2975 4387
Q 3406 4025 3406 3419
Q 3406 3131 3298 2873
Q 3191 2616 2906 2266
Q 2828 2175 2409 1742
Q 1991 1309 1228 531
z
" transform="scale(0.015625)"/>
       </defs>
       <use xlink:href="#id_001"/>
       <use xlink:href="#id_007" transform="translate(83.789062 0)"/>
       <use xlink:href="#id_005" transform="translate(147.412109 0)"/>
       <use xlink:href="#id_009" transform="translate(179.199219 0)"/>
      </g>
     </g>
    </g>
    <g id="id_195">
     <g id="id_060">
      <path d="M 208.219955 383.397812
L 208.219955 23.837812
" clip-path="url(#id_127)" style="fill: none; stroke: #b0b0b0; stroke-opacity: 0.6; stroke-width: 1.2; stroke-linecap: square"/>
     </g>
     <g id="id_061">
      <g>
       <use xlink:href="#id_124" x="208.219955" y="383.397812" style="stroke: #000000; stroke-width: 0.8"/>
      </g>
     </g>
     <g id="id_180">
      <!-- −0.1 -->
      <g transform="translate(196.078549 397.99625) scale(0.1 -0.1)">
       <defs>
        <path id="id_008" d="M 794 531
L 1825 531
L 1825 4091
L 703 3866
L 703 4441
L 1819 4666
L 2450 4666
L 2450 531
L 3481 531
L 3481 0
L 794 0
L 794 531
z
" transform="scale(0.015625)"/>
       </defs>
       <use xlink:href="#id_001"/>
       <use xlink:href="#id_007" transform="translate(83.789062 0)"/>
       <use xlink:href="#id_005" transform="translate(147.412109 0)"/>
       <use xlink:href="#id_008" transform="translate(179.199219 0)"/>
      </g>
     </g>
    </g>
    <g id="id_196">
     <g id="id_062">
      <path d="M 233.902812 383.397812
L 233.902812 23.837812
" clip-path="url(#id_127)" style="fill: none; stroke: #b0b0b0; stroke-opacity: 0.6; stroke-width: 1.2; stroke-linecap: square"/>
     </g>
     <g id="id_063">
      <g>
       <use xlink:href="#id_124" x="233.902812" y="383.397812" style="stroke: #000000; stroke-width: 0.8"/>
      </g>
     </g>
     <g id="id_181">
      <!-- 0.0 -->
      <g transform="translate(225.95125 397.99625) scale(0.1 -0.1)">
       <use xlink:href="#id_007"/>
       <use xlink:href="#id_005" transform="translate(63.623047 0)"/>
       <use xlink:href="#id_007" transform="translate(95.410156 0)"/>
      </g>
     </g>
    </g>
    <g id="id_197">
     <g id="id_064">
      <path d="M 259.58567 383.397812
L 259.58567 23.837812
" clip-path="url(#id_127)" style="fill: none; stroke: #b0b0b0; stroke-opacity: 0.6; stroke-width: 1.2; stroke-linecap: square"/>
     </g>
     <g id="id_065">
      <g>
       <use xlink:href="#id_124" x="259.58567" y="383.397812" style="stroke: #000000; stroke-width: 0.8"/>
      </g>
     </g>
     <g id="id_182">
      <!-- 0.1 -->
      <g transform="translate(251.634107 397.99625) scale(0.1 -0.1)">
       <use xlink:href="#id_007"/>
       <use xlink:href="#id_005" transform="translate(63.623047 0)"/>
       <use xlink:href="#id_008" transform="translate(95.410156 0)"/>
      </g>
     </g>
    </g>
    <g id="id_184">
     <g id="id_066">
      <path d="M 285.268527 383.397812
L 285.268527 23.837812
" clip-path="url(#id_127)" style="fill: none; stroke: #b0b0b0; stroke-opacity: 0.6; stroke-width: 1.2; stroke-linecap: square"/>
     </g>
     <g id="id_068">
      <g>
       <use xlink:href="#id_124" x="285.268527" y="383.397812" style="stroke: #000000; stroke-width: 0.8"/>
      </g>
     </g>
     <g id="id_145">
      <!-- 0.2 -->
      <g transform="translate(277.316964 397.99625) scale(0.1 -0.1)">
       <use xlink:href="#id_007"/>
       <use xlink:href="#id_005" transform="translate(63.623047 0)"/>
       <use xlink:href="#id_009" transform="translate(95.410156 0)"/>
      </g>
     </g>
    </g>
    <g id="id_185">
     <g id="id_069">
      <path d="M 310.951384 383.397812
L 310.951384 23.837812
" clip-path="url(#id_127)" style="fill: none; stroke: #b0b0b0; stroke-opacity: 0.6; stroke-width: 1.2; stroke-linecap: square"/>
     </g>
     <g id="id_070">
      <g>
       <use xlink:href="#id_124" x="310.951384" y="383.397812" style="stroke: #000000; stroke-width: 0.8"/>
      </g>
     </g>
     <g id="id_146">
      <!-- 0.3 -->
      <g transform="translate(302.999821 397.99625) scale(0.1 -0.1)">
       <use xlink:href="#id_007"/>
       <use xlink:href="#id_005" transform="translate(63.623047 0)"/>
       <use xlink:href="#id_010" transform="translate(95.410156 0)"/>
      </g>
     </g>
    </g>
    <g id="id_186">
     <g id="id_071">
      <path d="M 336.634241 383.397812
L 336.634241 23.837812
" clip-path="url(#id_127)" style="fill: none; stroke: #b0b0b0; stroke-opacity: 0.6; stroke-width: 1.2; stroke-linecap: square"/>
     </g>
     <g id="id_072">
      <g>
       <use xlink:href="#id_124" x="336.634241" y="383.397812" style="stroke: #000000; stroke-width: 0.8"/>
      </g>
     </g>
     <g id="id_147">
      <!-- 0.4 -->
      <g transform="translate(328.682679 397.99625) scale(0.1 -0.1)">
       <use xlink:href="#id_007"/>
       <use xlink:href="#id_005" transform="translate(63.623047 0)"/>
       <use xlink:href="#id_011" transform="translate(95.410156 0)"/>
      </g>
     </g>
    </g>
    <g id="id_187">
     <g id="id_073">
      <path d="M 362.317098 383.397812
L 362.317098 23.837812
" clip-path="url(#id_127)" style="fill: none; stroke: #b0b0b0; stroke-opacity: 0.6; stroke-width: 1.2; stroke-linecap: square"/>
     </g>
     <g id="id_074">
      <g>
       <use xlink:href="#id_124" x="362.317098" y="383.397812" style="stroke: #000000; stroke-width: 0.8"/>
      </g>
     </g>
     <g id="id_148">
      <!-- 0.5 -->
      <g transform="translate(354.365536 397.99625) scale(0.1 -0.1)">
       <use xlink:href="#id_007"/>
       <use xlink:href="#id_005" transform="translate(63.623047 0)"/>
       <use xlink:href="#id_012" transform="translate(95.410156 0)"/>
      </g>
     </g>
    </g>
    <g id="id_188">
     <g id="id_075">
      <path d="M 387.999955 383.397812
L 387.999955 23.837812
" clip-path="url(#id_127)" style="fill: none; stroke: #b0b0b0; stroke-opacity: 0.6; stroke-width: 1.2; stroke-linecap: square"/>
     </g>
     <g id="id_076">
      <g>
       <use xlink:href="#id_124" x="387.999955" y="383.397812" style="stroke: #000000; stroke-width: 0.8"/>
      </g>
     </g>
     <g id="id_149">
      <!-- 0.6 -->
      <g transform="translate(380.048393 397.99625) scale(0.1 -0.1)">
       <use xlink:href="#id_007"/>
       <use xlink:href="#id_005" transform="translate(63.623047 0)"/>
       <use xlink:href="#id_013" transform="translate(95.410156 0)"/>
      </g>
     </g>
    </g>
    <g id="id_189">
     <g id="id_077">
      <path d="M 413.682812 383.397812
L 413.682812 23.837812
" clip-path="url(#id_127)" style="fill: none; stroke: #b0b0b0; stroke-opacity: 0.6; stroke-width: 1.2; stroke-linecap: square"/>
     </g>
     <g id="id_079">
      <g>
       <use xlink:href="#id_124" x="413.682812" y="383.397812" style="stroke: #000000; stroke-width: 0.8"/>
      </g>
     </g>
     <g id="id_150">
      <!-- 0.7 -->
      <g transform="translate(405.73125 397.99625) scale(0.1 -0.1)">
       <use xlink:href="#id_007"/>
       <use xlink:href="#id_005" transform="translate(63.623047 0)"/>
       <use xlink:href="#id_014" transform="translate(95.410156 0)"/>
      </g>
     </g>
    </g>
    <g id="id_151">
     <!-- $r$ = (strike distance) / width -->
     <g transform="translate(151.402812 413.194062) scale(0.12 -0.12)">
      <defs>
       <path id="id_051" d="M 2853 2969
Q 2766 3016 2653 3041
Q 2541 3066 2413 3066
Q 1953 3066 1609 2717
Q 1266 2369 1153 1784
L 800 0
L 225 0
L 909 3500
L 1484 3500
L 1375 2956
Q 1603 3259 1920 3421
Q 2238 3584 2597 3584
Q 2691 3584 2781 3573
Q 2872 3563 2963 3538
L 2853 2969
z
" transform="scale(0.015625)"/>
       <path id="id_000" transform="scale(0.015625)"/>
       <path id="id_015" d="M 678 2906
L 4684 2906
L 4684 2381
L 678 2381
L 678 2906
z
M 678 1631
L 4684 1631
L 4684 1100
L 678 1100
L 678 1631
z
" transform="scale(0.015625)"/>
       <path id="id_002" d="M 1984 4856
Q 1566 4138 1362 3434
Q 1159 2731 1159 2009
Q 1159 1288 1364 580
Q 1569 -128 1984 -844
L 1484 -844
Q 1016 -109 783 600
Q 550 1309 550 2009
Q 550 2706 781 3412
Q 1013 4119 1484 4856
L 1984 4856
z
" transform="scale(0.015625)"/>
       <path id="id_033" d="M 2834 3397
L 2834 2853
Q 2591 2978 2328 3040
Q 2066 3103 1784 3103
Q 1356 3103 1142 2972
Q 928 2841 928 2578
Q 928 2378 1081 2264
Q 1234 2150 1697 2047
L 1894 2003
Q 2506 1872 2764 1633
Q 3022 1394 3022 966
Q 3022 478 2636 193
Q 2250 -91 1575 -91
Q 1294 -91 989 -36
Q 684 19 347 128
L 347 722
Q 666 556 975 473
Q 1284 391 1588 391
Q 1994 391 2212 530
Q 2431 669 2431 922
Q 2431 1156 2273 1281
Q 2116 1406 1581 1522
L 1381 1569
Q 847 1681 609 1914
Q 372 2147 372 2553
Q 372 3047 722 3315
Q 1072 3584 1716 3584
Q 2034 3584 2315 3537
Q 2597 3491 2834 3397
z
" transform="scale(0.015625)"/>
       <path id="id_034" d="M 1172 4494
L 1172 3500
L 2356 3500
L 2356 3053
L 1172 3053
L 1172 1153
Q 1172 725 1289 603
Q 1406 481 1766 481
L 2356 481
L 2356 0
L 1766 0
Q 1100 0 847 248
Q 594 497 594 1153
L 594 3053
L 172 3053
L 172 3500
L 594 3500
L 594 4494
L 1172 4494
z
" transform="scale(0.015625)"/>
       <path id="id_032" d="M 2631 2963
Q 2534 3019 2420 3045
Q 2306 3072 2169 3072
Q 1681 3072 1420 2755
Q 1159 2438 1159 1844
L 1159 0
L 581 0
L 581 3500
L 1159 3500
L 1159 2956
Q 1341 3275 1631 3429
Q 1922 3584 2338 3584
Q 2397 3584 2469 3576
Q 2541 3569 2628 3553
L 2631 2963
z
" transform="scale(0.015625)"/>
       <path id="id_026" d="M 603 3500
L 1178 3500
L 1178 0
L 603 0
L 603 3500
z
M 603 4863
L 1178 4863
L 1178 4134
L 603 4134
L 603 4863
z
" transform="scale(0.015625)"/>
       <path id="id_027" d="M 581 4863
L 1159 4863
L 1159 1991
L 2875 3500
L 3609 3500
L 1753 1863
L 3688 0
L 2938 0
L 1159 1709
L 1159 0
L 581 0
L 581 4863
z
" transform="scale(0.015625)"/>
       <path id="id_023" d="M 3597 1894
L 3597 1613
L 953 1613
Q 991 1019 1311 708
Q 1631 397 2203 397
Q 2534 397 2845 478
Q 3156 559 3463 722
L 3463 178
Q 3153 47 2828 -22
Q 2503 -91 2169 -91
Q 1331 -91 842 396
Q 353 884 353 1716
Q 353 2575 817 3079
Q 1281 3584 2069 3584
Q 2775 3584 3186 3129
Q 3597 2675 3597 1894
z
M 3022 2063
Q 3016 2534 2758 2815
Q 2500 3097 2075 3097
Q 1594 3097 1305 2825
Q 1016 2553 972 2059
L 3022 2063
z
" transform="scale(0.015625)"/>
       <path id="id_022" d="M 2906 2969
L 2906 4863
L 3481 4863
L 3481 0
L 2906 0
L 2906 525
Q 2725 213 2448 61
Q 2172 -91 1784 -91
Q 1150 -91 751 415
Q 353 922 353 1747
Q 353 2572 751 3078
Q 1150 3584 1784 3584
Q 2172 3584 2448 3432
Q 2725 3281 2906 2969
z
M 947 1747
Q 947 1113 1208 752
Q 1469 391 1925 391
Q 2381 391 2643 752
Q 2906 1113 2906 1747
Q 2906 2381 2643 2742
Q 2381 3103 1925 3103
Q 1469 3103 1208 2742
Q 947 2381 947 1747
z
" transform="scale(0.015625)"/>
       <path id="id_020" d="M 2194 1759
Q 1497 1759 1228 1600
Q 959 1441 959 1056
Q 959 750 1161 570
Q 1363 391 1709 391
Q 2188 391 2477 730
Q 2766 1069 2766 1631
L 2766 1759
L 2194 1759
z
M 3341 1997
L 3341 0
L 2766 0
L 2766 531
Q 2569 213 2275 61
Q 1981 -91 1556 -91
Q 1019 -91 701 211
Q 384 513 384 1019
Q 384 1609 779 1909
Q 1175 2209 1959 2209
L 2766 2209
L 2766 2266
Q 2766 2663 2505 2880
Q 2244 3097 1772 3097
Q 1472 3097 1187 3025
Q 903 2953 641 2809
L 641 3341
Q 956 3463 1253 3523
Q 1550 3584 1831 3584
Q 2591 3584 2966 3190
Q 3341 2797 3341 1997
z
" transform="scale(0.015625)"/>
       <path id="id_029" d="M 3513 2113
L 3513 0
L 2938 0
L 2938 2094
Q 2938 2591 2744 2837
Q 2550 3084 2163 3084
Q 1697 3084 1428 2787
Q 1159 2491 1159 1978
L 1159 0
L 581 0
L 581 3500
L 1159 3500
L 1159 2956
Q 1366 3272 1645 3428
Q 1925 3584 2291 3584
Q 2894 3584 3203 3211
Q 3513 2838 3513 2113
z
" transform="scale(0.015625)"/>
       <path id="id_021" d="M 3122 3366
L 3122 2828
Q 2878 2963 2633 3030
Q 2388 3097 2138 3097
Q 1578 3097 1268 2742
Q 959 2388 959 1747
Q 959 1106 1268 751
Q 1578 397 2138 397
Q 2388 397 2633 464
Q 2878 531 3122 666
L 3122 134
Q 2881 22 2623 -34
Q 2366 -91 2075 -91
Q 1284 -91 818 406
Q 353 903 353 1747
Q 353 2603 823 3093
Q 1294 3584 2113 3584
Q 2378 3584 2631 3529
Q 2884 3475 3122 3366
z
" transform="scale(0.015625)"/>
       <path id="id_003" d="M 513 4856
L 1013 4856
Q 1481 4119 1714 3412
Q 1947 2706 1947 2009
Q 1947 1309 1714 600
Q 1481 -109 1013 -844
L 513 -844
Q 928 -128 1133 580
Q 1338 1288 1338 2009
Q 1338 2731 1133 3434
Q 928 4138 513 4856
z
" transform="scale(0.015625)"/>
       <path id="id_006" d="M 1625 4666
L 2156 4666
L 531 -594
L 0 -594
L 1625 4666
z
" transform="scale(0.015625)"/>
       <path id="id_035" d="M 269 3500
L 844 3500
L 1563 769
L 2278 3500
L 2956 3500
L 3675 769
L 4391 3500
L 4966 3500
L 4050 0
L 3372 0
L 2619 2869
L 1863 0
L 1184 0
L 269 3500
z
" transform="scale(0.015625)"/>
       <path id="id_025" d="M 3513 2113
L 3513 0
L 2938 0
L 2938 2094
Q 2938 2591 2744 2837
Q 2550 3084 2163 3084
Q 1697 3084 1428 2787
Q 1159 2491 1159 1978
L 1159 0
L 581 0
L 581 4863
L 1159 4863
L 1159 2956
Q 1366 3272 1645 3428
Q 1925 3584 2291 3584
Q 2894 3584 3203 3211
Q 3513 2838 3513 2113
z
" transform="scale(0.015625)"/>
      </defs>
      <use xlink:href="#id_051" transform="translate(0 0.015625)"/>
      <use xlink:href="#id_000" transform="translate(41.113281 0.015625)"/>
      <use xlink:href="#id_015" transform="translate(72.900391 0.015625)"/>
      <use xlink:href="#id_000" transform="translate(156.689453 0.015625)"/>
      <use xlink:href="#id_002" transform="translate(188.476562 0.015625)"/>
      <use xlink:href="#id_033" transform="translate(227.490234 0.015625)"/>
      <use xlink:href="#id_034" transform="translate(279.589844 0.015625)"/>
      <use xlink:href="#id_032" transform="translate(318.798828 0.015625)"/>
      <use xlink:href="#id_026" transform="translate(359.912109 0.015625)"/>
      <use xlink:href="#id_027" transform="translate(387.695312 0.015625)"/>
      <use xlink:href="#id_023" transform="translate(445.605469 0.015625)"/>
      <use xlink:href="#id_000" transform="translate(507.128906 0.015625)"/>
      <use xlink:href="#id_022" transform="translate(538.916016 0.015625)"/>
      <use xlink:href="#id_026" transform="translate(602.392578 0.015625)"/>
      <use xlink:href="#id_033" transform="translate(630.175781 0.015625)"/>
      <use xlink:href="#id_034" transform="translate(682.275391 0.015625)"/>
      <use xlink:href="#id_020" transform="translate(721.484375 0.015625)"/>
      <use xlink:href="#id_029" transform="translate(782.763672 0.015625)"/>
      <use xlink:href="#id_021" transform="translate(846.142578 0.015625)"/>
      <use xlink:href="#id_023" transform="translate(901.123047 0.015625)"/>
      <use xlink:href="#id_003" transform="translate(962.646484 0.015625)"/>
      <use xlink:href="#id_000" transform="translate(1001.660156 0.015625)"/>
      <use xlink:href="#id_006" transform="translate(1033.447266 0.015625)"/>
      <use xlink:href="#id_000" transform="translate(1067.138672 0.015625)"/>
      <use xlink:href="#id_035" transform="translate(1098.925781 0.015625)"/>
      <use xlink:href="#id_026" transform="translate(1180.712891 0.015625)"/>
      <use xlink:href="#id_022" transform="translate(1208.496094 0.015625)"/>
      <use xlink:href="#id_034" transform="translate(1271.972656 0.015625)"/>
      <use xlink:href="#id_025" transform="translate(1311.181641 0.015625)"/>
     </g>
    </g>
   </g>
   <g id="id_126">
    <g id="id_198">
     <g id="id_080">
      <path d="M 54.122813 383.397812
L 413.682812 383.397812
" clip-path="url(#id_127)" style="fill: none; stroke: #b0b0b0; stroke-opacity: 0.6; stroke-width: 1.2; stroke-linecap: square"/>
     </g>
     <g id="id_081">
      <defs>
       <path id="id_123" d="M 0 0
L -3.5 0
" style="stroke: #000000; stroke-width: 0.8"/>
      </defs>
      <g>
       <use xlink:href="#id_123" x="54.122813" y="383.397812" style="stroke: #000000; stroke-width: 0.8"/>
      </g>
     </g>
     <g id="id_152">
      <!-- −0.7 -->
      <g transform="translate(22.84 387.197031) scale(0.1 -0.1)">
       <use xlink:href="#id_001"/>
       <use xlink:href="#id_007" transform="translate(83.789062 0)"/>
       <use xlink:href="#id_005" transform="translate(147.412109 0)"/>
       <use xlink:href="#id_014" transform="translate(179.199219 0)"/>
      </g>
     </g>
    </g>
    <g id="id_205">
     <g id="id_082">
      <path d="M 54.122813 357.714955
L 413.682812 357.714955
" clip-path="url(#id_127)" style="fill: none; stroke: #b0b0b0; stroke-opacity: 0.6; stroke-width: 1.2; stroke-linecap: square"/>
     </g>
     <g id="id_083">
      <g>
       <use xlink:href="#id_123" x="54.122813" y="357.714955" style="stroke: #000000; stroke-width: 0.8"/>
      </g>
     </g>
     <g id="id_153">
      <!-- −0.6 -->
      <g transform="translate(22.84 361.514174) scale(0.1 -0.1)">
       <use xlink:href="#id_001"/>
       <use xlink:href="#id_007" transform="translate(83.789062 0)"/>
       <use xlink:href="#id_005" transform="translate(147.412109 0)"/>
       <use xlink:href="#id_013" transform="translate(179.199219 0)"/>
      </g>
     </g>
    </g>
    <g id="id_206">
     <g id="id_084">
      <path d="M 54.122813 332.032098
L 413.682812 332.032098
" clip-path="url(#id_127)" style="fill: none; stroke: #b0b0b0; stroke-opacity: 0.6; stroke-width: 1.2; stroke-linecap: square"/>
     </g>
     <g id="id_085">
      <g>
       <use xlink:href="#id_123" x="54.122813" y="332.032098" style="stroke: #000000; stroke-width: 0.8"/>
      </g>
     </g>
     <g id="id_154">
      <!-- −0.5 -->
      <g transform="translate(22.84 335.831317) scale(0.1 -0.1)">
       <use xlink:href="#id_001"/>
       <use xlink:href="#id_007" transform="translate(83.789062 0)"/>
       <use xlink:href="#id_005" transform="translate(147.412109 0)"/>
       <use xlink:href="#id_012" transform="translate(179.199219 0)"/>
      </g>
     </g>
    </g>
    <g id="id_207">
     <g id="id_086">
      <path d="M 54.122813 306.349241
L 413.682812 306.349241
" clip-path="url(#id_127)" style="fill: none; stroke: #b0b0b0; stroke-opacity: 0.6; stroke-width: 1.2; stroke-linecap: square"/>
     </g>
     <g id="id_087">
      <g>
       <use xlink:href="#id_123" x="54.122813" y="306.349241" style="stroke: #000000; stroke-width: 0.8"/>
      </g>
     </g>
     <g id="id_156">
      <!-- −0.4 -->
      <g transform="translate(22.84 310.14846) scale(0.1 -0.1)">
       <use xlink:href="#id_001"/>
       <use xlink:href="#id_007" transform="translate(83.789062 0)"/>
       <use xlink:href="#id_005" transform="translate(147.412109 0)"/>
       <use xlink:href="#id_011" transform="translate(179.199219 0)"/>
      </g>
     </g>
    </g>
    <g id="id_208">
     <g id="id_088">
      <path d="M 54.122813 280.666384
L 413.682812 280.666384
" clip-path="url(#id_127)" style="fill: none; stroke: #b0b0b0; stroke-opacity: 0.6; stroke-width: 1.2; stroke-linecap: square"/>
     </g>
     <g id="id_090">
      <g>
       <use xlink:href="#id_123" x="54.122813" y="280.666384" style="stroke: #000000; stroke-width: 0.8"/>
      </g>
     </g>
     <g id="id_157">
      <!-- −0.3 -->
      <g transform="translate(22.84 284.465603) scale(0.1 -0.1)">
       <use xlink:href="#id_001"/>
       <use xlink:href="#id_007" transform="translate(83.789062 0)"/>
       <use xlink:href="#id_005" transform="translate(147.412109 0)"/>
       <use xlink:href="#id_010" transform="translate(179.199219 0)"/>
      </g>
     </g>
    </g>
    <g id="id_209">
     <g id="id_091">
      <path d="M 54.122813 254.983527
L 413.682812 254.983527
" clip-path="url(#id_127)" style="fill: none; stroke: #b0b0b0; stroke-opacity: 0.6; stroke-width: 1.2; stroke-linecap: square"/>
     </g>
     <g id="id_092">
      <g>
       <use xlink:href="#id_123" x="54.122813" y="254.983527" style="stroke: #000000; stroke-width: 0.8"/>
      </g>
     </g>
     <g id="id_158">
      <!-- −0.2 -->
      <g transform="translate(22.84 258.782746) scale(0.1 -0.1)">
       <use xlink:href="#id_001"/>
       <use xlink:href="#id_007" transform="translate(83.789062 0)"/>
       <use xlink:href="#id_005" transform="translate(147.412109 0)"/>
       <use xlink:href="#id_009" transform="translate(179.199219 0)"/>
      </g>
     </g>
    </g>
    <g id="id_210">
     <g id="id_093">
      <path d="M 54.122813 229.30067
L 413.682812 229.30067
" clip-path="url(#id_127)" style="fill: none; stroke: #b0b0b0; stroke-opacity: 0.6; stroke-width: 1.2; stroke-linecap: square"/>
     </g>
     <g id="id_094">
      <g>
       <use xlink:href="#id_123" x="54.122813" y="229.30067" style="stroke: #000000; stroke-width: 0.8"/>
      </g>
     </g>
     <g id="id_159">
      <!-- −0.1 -->
      <g transform="translate(22.84 233.099888) scale(0.1 -0.1)">
       <use xlink:href="#id_001"/>
       <use xlink:href="#id_007" transform="translate(83.789062 0)"/>
       <use xlink:href="#id_005" transform="translate(147.412109 0)"/>
       <use xlink:href="#id_008" transform="translate(179.199219 0)"/>
      </g>
     </g>
    </g>
    <g id="id_211">
     <g id="id_095">
      <path d="M 54.122813 203.617812
L 413.682812 203.617812
" clip-path="url(#id_127)" style="fill: none; stroke: #b0b0b0; stroke-opacity: 0.6; stroke-width: 1.2; stroke-linecap: square"/>
     </g>
     <g id="id_096">
      <g>
       <use xlink:href="#id_123" x="54.122813" y="203.617812" style="stroke: #000000; stroke-width: 0.8"/>
      </g>
     </g>
     <g id="id_160">
      <!-- 0.0 -->
      <g transform="translate(31.219688 207.417031) scale(0.1 -0.1)">
       <use xlink:href="#id_007"/>
       <use xlink:href="#id_005" transform="translate(63.623047 0)"/>
       <use xlink:href="#id_007" transform="translate(95.410156 0)"/>
      </g>
     </g>
    </g>
    <g id="id_212">
     <g id="id_097">
      <path d="M 54.122813 177.934955
L 413.682812 177.934955
" clip-path="url(#id_127)" style="fill: none; stroke: #b0b0b0; stroke-opacity: 0.6; stroke-width: 1.2; stroke-linecap: square"/>
     </g>
     <g id="id_098">
      <g>
       <use xlink:href="#id_123" x="54.122813" y="177.934955" style="stroke: #000000; stroke-width: 0.8"/>
      </g>
     </g>
     <g id="id_161">
      <!-- 0.1 -->
      <g transform="translate(31.219688 181.734174) scale(0.1 -0.1)">
       <use xlink:href="#id_007"/>
       <use xlink:href="#id_005" transform="translate(63.623047 0)"/>
       <use xlink:href="#id_008" transform="translate(95.410156 0)"/>
      </g>
     </g>
    </g>
    <g id="id_199">
     <g id="id_099">
      <path d="M 54.122813 152.252098
L 413.682812 152.252098
" clip-path="url(#id_127)" style="fill: none; stroke: #b0b0b0; stroke-opacity: 0.6; stroke-width: 1.2; stroke-linecap: square"/>
     </g>
     <g id="id_101">
      <g>
       <use xlink:href="#id_123" x="54.122813" y="152.252098" style="stroke: #000000; stroke-width: 0.8"/>
      </g>
     </g>
     <g id="id_162">
      <!-- 0.2 -->
      <g transform="translate(31.219688 156.051317) scale(0.1 -0.1)">
       <use xlink:href="#id_007"/>
       <use xlink:href="#id_005" transform="translate(63.623047 0)"/>
       <use xlink:href="#id_009" transform="translate(95.410156 0)"/>
      </g>
     </g>
    </g>
    <g id="id_200">
     <g id="id_102">
      <path d="M 54.122813 126.569241
L 413.682812 126.569241
" clip-path="url(#id_127)" style="fill: none; stroke: #b0b0b0; stroke-opacity: 0.6; stroke-width: 1.2; stroke-linecap: square"/>
     </g>
     <g id="id_103">
      <g>
       <use xlink:href="#id_123" x="54.122813" y="126.569241" style="stroke: #000000; stroke-width: 0.8"/>
      </g>
     </g>
     <g id="id_163">
      <!-- 0.3 -->
      <g transform="translate(31.219688 130.36846) scale(0.1 -0.1)">
       <use xlink:href="#id_007"/>
       <use xlink:href="#id_005" transform="translate(63.623047 0)"/>
       <use xlink:href="#id_010" transform="translate(95.410156 0)"/>
      </g>
     </g>
    </g>
    <g id="id_201">
     <g id="id_104">
      <path d="M 54.122813 100.886384
L 413.682812 100.886384
" clip-path="url(#id_127)" style="fill: none; stroke: #b0b0b0; stroke-opacity: 0.6; stroke-width: 1.2; stroke-linecap: square"/>
     </g>
     <g id="id_105">
      <g>
       <use xlink:href="#id_123" x="54.122813" y="100.886384" style="stroke: #000000; stroke-width: 0.8"/>
      </g>
     </g>
     <g id="id_164">
      <!-- 0.4 -->
      <g transform="translate(31.219688 104.685603) scale(0.1 -0.1)">
       <use xlink:href="#id_007"/>
       <use xlink:href="#id_005" transform="translate(63.623047 0)"/>
       <use xlink:href="#id_011" transform="translate(95.410156 0)"/>
      </g>
     </g>
    </g>
    <g id="id_202">
     <g id="id_106">
      <path d="M 54.122813 75.203527
L 413.682812 75.203527
" clip-path="url(#id_127)" style="fill: none; stroke: #b0b0b0; stroke-opacity: 0.6; stroke-width: 1.2; stroke-linecap: square"/>
     </g>
     <g id="id_107">
      <g>
       <use xlink:href="#id_123" x="54.122813" y="75.203527" style="stroke: #000000; stroke-width: 0.8"/>
      </g>
     </g>
     <g id="id_165">
      <!-- 0.5 -->
      <g transform="translate(31.219688 79.002746) scale(0.1 -0.1)">
       <use xlink:href="#id_007"/>
       <use xlink:href="#id_005" transform="translate(63.623047 0)"/>
       <use xlink:href="#id_012" transform="translate(95.410156 0)"/>
      </g>
     </g>
    </g>
    <g id="id_203">
     <g id="id_108">
      <path d="M 54.122813 49.52067
L 413.682812 49.52067
" clip-path="url(#id_127)" style="fill: none; stroke: #b0b0b0; stroke-opacity: 0.6; stroke-width: 1.2; stroke-linecap: square"/>
     </g>
     <g id="id_109">
      <g>
       <use xlink:href="#id_123" x="54.122813" y="49.52067" style="stroke: #000000; stroke-width: 0.8"/>
      </g>
     </g>
     <g id="id_167">
      <!-- 0.6 -->
      <g transform="translate(31.219688 53.319888) scale(0.1 -0.1)">
       <use xlink:href="#id_007"/>
       <use xlink:href="#id_005" transform="translate(63.623047 0)"/>
       <use xlink:href="#id_013" transform="translate(95.410156 0)"/>
      </g>
     </g>
    </g>
    <g id="id_204">
     <g id="id_110">
      <path d="M 54.122813 23.837813
L 413.682812 23.837813
" clip-path="url(#id_127)" style="fill: none; stroke: #b0b0b0; stroke-opacity: 0.6; stroke-width: 1.2; stroke-linecap: square"/>
     </g>
     <g id="id_112">
      <g>
       <use xlink:href="#id_123" x="54.122813" y="23.837813" style="stroke: #000000; stroke-width: 0.8"/>
      </g>
     </g>
     <g id="id_168">
      <!-- 0.7 -->
      <g transform="translate(31.219688 27.637031) scale(0.1 -0.1)">
       <use xlink:href="#id_007"/>
       <use xlink:href="#id_005" transform="translate(63.623047 0)"/>
       <use xlink:href="#id_014" transform="translate(95.410156 0)"/>
      </g>
     </g>
    </g>
    <g id="id_169">
     <!-- $s$ = (dip distance) / height -->
     <g transform="translate(16.32 281.857812) rotate(-90) scale(0.12 -0.12)">
      <defs>
       <path id="id_052" d="M 3200 3397
L 3091 2853
Q 2863 2978 2609 3040
Q 2356 3103 2088 3103
Q 1634 3103 1373 2948
Q 1113 2794 1113 2528
Q 1113 2219 1719 2053
Q 1766 2041 1788 2034
L 1972 1978
Q 2547 1819 2739 1644
Q 2931 1469 2931 1166
Q 2931 609 2489 259
Q 2047 -91 1331 -91
Q 1053 -91 747 -37
Q 441 16 72 128
L 184 722
Q 500 559 806 475
Q 1113 391 1394 391
Q 1816 391 2080 572
Q 2344 753 2344 1031
Q 2344 1331 1650 1516
L 1591 1531
L 1394 1581
Q 956 1697 753 1886
Q 550 2075 550 2369
Q 550 2928 970 3256
Q 1391 3584 2113 3584
Q 2397 3584 2667 3537
Q 2938 3491 3200 3397
z
" transform="scale(0.015625)"/>
       <path id="id_031" d="M 1159 525
L 1159 -1331
L 581 -1331
L 581 3500
L 1159 3500
L 1159 2969
Q 1341 3281 1617 3432
Q 1894 3584 2278 3584
Q 2916 3584 3314 3078
Q 3713 2572 3713 1747
Q 3713 922 3314 415
Q 2916 -91 2278 -91
Q 1894 -91 1617 61
Q 1341 213 1159 525
z
M 3116 1747
Q 3116 2381 2855 2742
Q 2594 3103 2138 3103
Q 1681 3103 1420 2742
Q 1159 2381 1159 1747
Q 1159 1113 1420 752
Q 1681 391 2138 391
Q 2594 391 2855 752
Q 3116 1113 3116 1747
z
" transform="scale(0.015625)"/>
       <path id="id_024" d="M 2906 1791
Q 2906 2416 2648 2759
Q 2391 3103 1925 3103
Q 1463 3103 1205 2759
Q 947 2416 947 1791
Q 947 1169 1205 825
Q 1463 481 1925 481
Q 2391 481 2648 825
Q 2906 1169 2906 1791
z
M 3481 434
Q 3481 -459 3084 -895
Q 2688 -1331 1869 -1331
Q 1566 -1331 1297 -1286
Q 1028 -1241 775 -1147
L 775 -588
Q 1028 -725 1275 -790
Q 1522 -856 1778 -856
Q 2344 -856 2625 -561
Q 2906 -266 2906 331
L 2906 616
Q 2728 306 2450 153
Q 2172 0 1784 0
Q 1141 0 747 490
Q 353 981 353 1791
Q 353 2603 747 3093
Q 1141 3584 1784 3584
Q 2172 3584 2450 3431
Q 2728 3278 2906 2969
L 2906 3500
L 3481 3500
L 3481 434
z
" transform="scale(0.015625)"/>
      </defs>
      <use xlink:href="#id_052" transform="translate(0 0.015625)"/>
      <use xlink:href="#id_000" transform="translate(52.099609 0.015625)"/>
      <use xlink:href="#id_015" transform="translate(83.886719 0.015625)"/>
      <use xlink:href="#id_000" transform="translate(167.675781 0.015625)"/>
      <use xlink:href="#id_002" transform="translate(199.462891 0.015625)"/>
      <use xlink:href="#id_022" transform="translate(238.476562 0.015625)"/>
      <use xlink:href="#id_026" transform="translate(301.953125 0.015625)"/>
      <use xlink:href="#id_031" transform="translate(329.736328 0.015625)"/>
      <use xlink:href="#id_000" transform="translate(393.212891 0.015625)"/>
      <use xlink:href="#id_022" transform="translate(425 0.015625)"/>
      <use xlink:href="#id_026" transform="translate(488.476562 0.015625)"/>
      <use xlink:href="#id_033" transform="translate(516.259766 0.015625)"/>
      <use xlink:href="#id_034" transform="translate(568.359375 0.015625)"/>
      <use xlink:href="#id_020" transform="translate(607.568359 0.015625)"/>
      <use xlink:href="#id_029" transform="translate(668.847656 0.015625)"/>
      <use xlink:href="#id_021" transform="translate(732.226562 0.015625)"/>
      <use xlink:href="#id_023" transform="translate(787.207031 0.015625)"/>
      <use xlink:href="#id_003" transform="translate(848.730469 0.015625)"/>
      <use xlink:href="#id_000" transform="translate(887.744141 0.015625)"/>
      <use xlink:href="#id_006" transform="translate(919.53125 0.015625)"/>
      <use xlink:href="#id_000" transform="translate(953.222656 0.015625)"/>
      <use xlink:href="#id_025" transform="translate(985.009766 0.015625)"/>
      <use xlink:href="#id_023" transform="translate(1048.388672 0.015625)"/>
      <use xlink:href="#id_026" transform="translate(1109.912109 0.015625)"/>
      <use xlink:href="#id_024" transform="translate(1137.695312 0.015625)"/>
      <use xlink:href="#id_025" transform="translate(1201.171875 0.015625)"/>
      <use xlink:href="#id_034" transform="translate(1264.550781 0.015625)"/>
     </g>
    </g>
   </g>
   <g id="id_113">
    <path d="M 362.317098 75.203527
L 105.488527 332.032098
" clip-path="url(#id_127)" style="fill: none; stroke: #8598e1; stroke-opacity: 0.8; stroke-width: 2.5; stroke-linecap: square"/>
   </g>
   <g id="id_114">
    <path d="M 105.488527 75.203527
L 362.317098 332.032098
" clip-path="url(#id_127)" style="fill: none; stroke: #ee6666; stroke-opacity: 0.8; stroke-width: 2.5; stroke-linecap: square"/>
   </g>
   <g id="id_115">
    <path d="M 233.902812 332.032098
L 105.488527 75.203527
" clip-path="url(#id_127)" style="fill: none; stroke: #88dd88; stroke-opacity: 0.8; stroke-width: 2.5; stroke-linecap: square"/>
   </g>
   <g id="id_116">
    <path d="M 233.902812 332.032098
L 362.317098 75.203527
" clip-path="url(#id_127)" style="fill: none; stroke: #88dd88; stroke-opacity: 0.8; stroke-width: 2.5; stroke-linecap: square"/>
   </g>
   <g id="id_142">
    <path d="M 54.122813 383.397812
L 54.122813 23.837812
" style="fill: none; stroke: #000000; stroke-width: 0.8; stroke-linejoin: miter; stroke-linecap: square"/>
   </g>
   <g id="id_143">
    <path d="M 413.682812 383.397812
L 413.682812 23.837812
" style="fill: none; stroke: #000000; stroke-width: 0.8; stroke-linejoin: miter; stroke-linecap: square"/>
   </g>
   <g id="id_129">
    <path d="M 54.122813 383.397812
L 413.682812 383.397812
" style="fill: none; stroke: #000000; stroke-width: 0.8; stroke-linejoin: miter; stroke-linecap: square"/>
   </g>
   <g id="id_130">
    <path d="M 54.122813 23.837812
L 413.682812 23.837812
" style="fill: none; stroke: #000000; stroke-width: 0.8; stroke-linejoin: miter; stroke-linecap: square"/>
   </g>
   <g id="id_170">
    <!-- Triangulation Selection Strategy -->
    <g transform="translate(105.955937 17.837812) scale(0.14 -0.14)">
     <defs>
      <path id="id_038" d="M 31 4666
L 4331 4666
L 4331 3756
L 2784 3756
L 2784 0
L 1581 0
L 1581 3756
L 31 3756
L 31 4666
z
" transform="scale(0.015625)"/>
      <path id="id_047" d="M 3138 2547
Q 2991 2616 2845 2648
Q 2700 2681 2553 2681
Q 2122 2681 1889 2404
Q 1656 2128 1656 1613
L 1656 0
L 538 0
L 538 3500
L 1656 3500
L 1656 2925
Q 1872 3269 2151 3426
Q 2431 3584 2822 3584
Q 2878 3584 2943 3579
Q 3009 3575 3134 3559
L 3138 2547
z
" transform="scale(0.015625)"/>
      <path id="id_043" d="M 538 3500
L 1656 3500
L 1656 0
L 538 0
L 538 3500
z
M 538 4863
L 1656 4863
L 1656 3950
L 538 3950
L 538 4863
z
" transform="scale(0.015625)"/>
      <path id="id_039" d="M 2106 1575
Q 1756 1575 1579 1456
Q 1403 1338 1403 1106
Q 1403 894 1545 773
Q 1688 653 1941 653
Q 2256 653 2472 879
Q 2688 1106 2688 1447
L 2688 1575
L 2106 1575
z
M 3816 1997
L 3816 0
L 2688 0
L 2688 519
Q 2463 200 2181 54
Q 1900 -91 1497 -91
Q 953 -91 614 226
Q 275 544 275 1050
Q 275 1666 698 1953
Q 1122 2241 2028 2241
L 2688 2241
L 2688 2328
Q 2688 2594 2478 2717
Q 2269 2841 1825 2841
Q 1466 2841 1156 2769
Q 847 2697 581 2553
L 581 3406
Q 941 3494 1303 3539
Q 1666 3584 2028 3584
Q 2975 3584 3395 3211
Q 3816 2838 3816 1997
z
" transform="scale(0.015625)"/>
      <path id="id_045" d="M 4056 2131
L 4056 0
L 2931 0
L 2931 347
L 2931 1631
Q 2931 2084 2911 2256
Q 2891 2428 2841 2509
Q 2775 2619 2662 2680
Q 2550 2741 2406 2741
Q 2056 2741 1856 2470
Q 1656 2200 1656 1722
L 1656 0
L 538 0
L 538 3500
L 1656 3500
L 1656 2988
Q 1909 3294 2193 3439
Q 2478 3584 2822 3584
Q 3428 3584 3742 3212
Q 4056 2841 4056 2131
z
" transform="scale(0.015625)"/>
      <path id="id_042" d="M 2919 594
Q 2688 288 2409 144
Q 2131 0 1766 0
Q 1125 0 706 504
Q 288 1009 288 1791
Q 288 2575 706 3076
Q 1125 3578 1766 3578
Q 2131 3578 2409 3434
Q 2688 3291 2919 2981
L 2919 3500
L 4044 3500
L 4044 353
Q 4044 -491 3511 -936
Q 2978 -1381 1966 -1381
Q 1638 -1381 1331 -1331
Q 1025 -1281 716 -1178
L 716 -306
Q 1009 -475 1290 -558
Q 1572 -641 1856 -641
Q 2406 -641 2662 -400
Q 2919 -159 2919 353
L 2919 594
z
M 2181 2772
Q 1834 2772 1640 2515
Q 1447 2259 1447 1791
Q 1447 1309 1634 1061
Q 1822 813 2181 813
Q 2531 813 2725 1069
Q 2919 1325 2919 1791
Q 2919 2259 2725 2515
Q 2531 2772 2181 2772
z
" transform="scale(0.015625)"/>
      <path id="id_049" d="M 500 1363
L 500 3500
L 1625 3500
L 1625 3150
Q 1625 2866 1622 2436
Q 1619 2006 1619 1863
Q 1619 1441 1641 1255
Q 1663 1069 1716 984
Q 1784 875 1895 815
Q 2006 756 2150 756
Q 2500 756 2700 1025
Q 2900 1294 2900 1772
L 2900 3500
L 4019 3500
L 4019 0
L 2900 0
L 2900 506
Q 2647 200 2364 54
Q 2081 -91 1741 -91
Q 1134 -91 817 281
Q 500 653 500 1363
z
" transform="scale(0.015625)"/>
      <path id="id_044" d="M 538 4863
L 1656 4863
L 1656 0
L 538 0
L 538 4863
z
" transform="scale(0.015625)"/>
      <path id="id_048" d="M 1759 4494
L 1759 3500
L 2913 3500
L 2913 2700
L 1759 2700
L 1759 1216
Q 1759 972 1856 886
Q 1953 800 2241 800
L 2816 800
L 2816 0
L 1856 0
Q 1194 0 917 276
Q 641 553 641 1216
L 641 2700
L 84 2700
L 84 3500
L 641 3500
L 641 4494
L 1759 4494
z
" transform="scale(0.015625)"/>
      <path id="id_046" d="M 2203 2784
Q 1831 2784 1636 2517
Q 1441 2250 1441 1747
Q 1441 1244 1636 976
Q 1831 709 2203 709
Q 2569 709 2762 976
Q 2956 1244 2956 1747
Q 2956 2250 2762 2517
Q 2569 2784 2203 2784
z
M 2203 3584
Q 3106 3584 3614 3096
Q 4122 2609 4122 1747
Q 4122 884 3614 396
Q 3106 -91 2203 -91
Q 1297 -91 786 396
Q 275 884 275 1747
Q 275 2609 786 3096
Q 1297 3584 2203 3584
z
" transform="scale(0.015625)"/>
      <path id="id_036" transform="scale(0.015625)"/>
      <path id="id_037" d="M 3834 4519
L 3834 3531
Q 3450 3703 3084 3790
Q 2719 3878 2394 3878
Q 1963 3878 1756 3759
Q 1550 3641 1550 3391
Q 1550 3203 1689 3098
Q 1828 2994 2194 2919
L 2706 2816
Q 3484 2659 3812 2340
Q 4141 2022 4141 1434
Q 4141 663 3683 286
Q 3225 -91 2284 -91
Q 1841 -91 1394 -6
Q 947 78 500 244
L 500 1259
Q 947 1022 1364 901
Q 1781 781 2169 781
Q 2563 781 2772 912
Q 2981 1044 2981 1288
Q 2981 1506 2839 1625
Q 2697 1744 2272 1838
L 1806 1941
Q 1106 2091 782 2419
Q 459 2747 459 3303
Q 459 4000 909 4375
Q 1359 4750 2203 4750
Q 2588 4750 2994 4692
Q 3400 4634 3834 4519
z
" transform="scale(0.015625)"/>
      <path id="id_041" d="M 4031 1759
L 4031 1441
L 1416 1441
Q 1456 1047 1700 850
Q 1944 653 2381 653
Q 2734 653 3104 758
Q 3475 863 3866 1075
L 3866 213
Q 3469 63 3072 -14
Q 2675 -91 2278 -91
Q 1328 -91 801 392
Q 275 875 275 1747
Q 275 2603 792 3093
Q 1309 3584 2216 3584
Q 3041 3584 3536 3087
Q 4031 2591 4031 1759
z
M 2881 2131
Q 2881 2450 2695 2645
Q 2509 2841 2209 2841
Q 1884 2841 1681 2658
Q 1478 2475 1428 2131
L 2881 2131
z
" transform="scale(0.015625)"/>
      <path id="id_040" d="M 3366 3391
L 3366 2478
Q 3138 2634 2908 2709
Q 2678 2784 2431 2784
Q 1963 2784 1702 2511
Q 1441 2238 1441 1747
Q 1441 1256 1702 982
Q 1963 709 2431 709
Q 2694 709 2930 787
Q 3166 866 3366 1019
L 3366 103
Q 3103 6 2833 -42
Q 2563 -91 2291 -91
Q 1344 -91 809 395
Q 275 881 275 1747
Q 275 2613 809 3098
Q 1344 3584 2291 3584
Q 2566 3584 2833 3536
Q 3100 3488 3366 3391
z
" transform="scale(0.015625)"/>
      <path id="id_050" d="M 78 3500
L 1197 3500
L 2138 1125
L 2938 3500
L 4056 3500
L 2584 -331
Q 2363 -916 2067 -1148
Q 1772 -1381 1288 -1381
L 641 -1381
L 641 -647
L 991 -647
Q 1275 -647 1404 -556
Q 1534 -466 1606 -231
L 1638 -134
L 78 3500
z
" transform="scale(0.015625)"/>
     </defs>
     <use xlink:href="#id_038"/>
     <use xlink:href="#id_047" transform="translate(57.212891 0)"/>
     <use xlink:href="#id_043" transform="translate(106.529297 0)"/>
     <use xlink:href="#id_039" transform="translate(140.806641 0)"/>
     <use xlink:href="#id_045" transform="translate(208.287109 0)"/>
     <use xlink:href="#id_042" transform="translate(279.478516 0)"/>
     <use xlink:href="#id_049" transform="translate(351.060547 0)"/>
     <use xlink:href="#id_044" transform="translate(422.251953 0)"/>
     <use xlink:href="#id_039" transform="translate(456.529297 0)"/>
     <use xlink:href="#id_048" transform="translate(524.009766 0)"/>
     <use xlink:href="#id_043" transform="translate(571.8125 0)"/>
     <use xlink:href="#id_046" transform="translate(606.089844 0)"/>
     <use xlink:href="#id_045" transform="translate(674.791016 0)"/>
     <use xlink:href="#id_036" transform="translate(745.982422 0)"/>
     <use xlink:href="#id_037" transform="translate(780.796875 0)"/>
     <use xlink:href="#id_041" transform="translate(852.818359 0)"/>
     <use xlink:href="#id_044" transform="translate(920.640625 0)"/>
     <use xlink:href="#id_041" transform="translate(954.917969 0)"/>
     <use xlink:href="#id_040" transform="translate(1022.740234 0)"/>
     <use xlink:href="#id_048" transform="translate(1082.017578 0)"/>
     <use xlink:href="#id_043" transform="translate(1129.820312 0)"/>
     <use xlink:href="#id_046" transform="translate(1164.097656 0)"/>
     <use xlink:href="#id_045" transform="translate(1232.798828 0)"/>
     <use xlink:href="#id_036" transform="translate(1303.990234 0)"/>
     <use xlink:href="#id_037" transform="translate(1338.804688 0)"/>
     <use xlink:href="#id_048" transform="translate(1410.826172 0)"/>
     <use xlink:href="#id_047" transform="translate(1458.628906 0)"/>
     <use xlink:href="#id_039" transform="translate(1507.945312 0)"/>
     <use xlink:href="#id_048" transform="translate(1575.425781 0)"/>
     <use xlink:href="#id_041" transform="translate(1623.228516 0)"/>
     <use xlink:href="#id_042" transform="translate(1691.050781 0)"/>
     <use xlink:href="#id_050" transform="translate(1762.632812 0)"/>
    </g>
   </g>
   <g id="id_055">
    <g id="id_131">
     <path d="M 429.874012 251.152187
L 585.283387 251.152187
Q 587.283387 251.152187 587.283387 249.152187
L 587.283387 162.083437
Q 587.283387 160.083437 585.283387 160.083437
L 429.874012 160.083437
Q 427.874012 160.083437 427.874012 162.083437
L 427.874012 249.152187
Q 427.874012 251.152187 429.874012 251.152187
z
" style="fill: #4d4d4d; opacity: 0.5; stroke: #4d4d4d; stroke-linejoin: miter"/>
    </g>
    <g id="id_132">
     <path d="M 427.874012 249.152187
L 583.283387 249.152187
Q 585.283387 249.152187 585.283387 247.152187
L 585.283387 160.083437
Q 585.283387 158.083437 583.283387 158.083437
L 427.874012 158.083437
Q 425.874012 158.083437 425.874012 160.083437
L 425.874012 247.152187
Q 425.874012 249.152187 427.874012 249.152187
z
" style="fill: #ffffff; stroke: #cccccc; stroke-linejoin: miter"/>
    </g>
    <g id="id_133">
     <path d="M 429.874012 169.681875
L 449.874012 169.681875
L 449.874012 162.681875
L 429.874012 162.681875
z
" style="fill: #8598e1; stroke: #8598e1; stroke-linejoin: miter"/>
    </g>
    <g id="id_171">
     <!-- Forward slash (/) regions -->
     <g transform="translate(457.874012 169.681875) scale(0.1 -0.1)">
      <defs>
       <path id="id_017" d="M 628 4666
L 3309 4666
L 3309 4134
L 1259 4134
L 1259 2759
L 3109 2759
L 3109 2228
L 1259 2228
L 1259 0
L 628 0
L 628 4666
z
" transform="scale(0.015625)"/>
       <path id="id_030" d="M 1959 3097
Q 1497 3097 1228 2736
Q 959 2375 959 1747
Q 959 1119 1226 758
Q 1494 397 1959 397
Q 2419 397 2687 759
Q 2956 1122 2956 1747
Q 2956 2369 2687 2733
Q 2419 3097 1959 3097
z
M 1959 3584
Q 2709 3584 3137 3096
Q 3566 2609 3566 1747
Q 3566 888 3137 398
Q 2709 -91 1959 -91
Q 1206 -91 779 398
Q 353 888 353 1747
Q 353 2609 779 3096
Q 1206 3584 1959 3584
z
" transform="scale(0.015625)"/>
       <path id="id_028" d="M 603 4863
L 1178 4863
L 1178 0
L 603 0
L 603 4863
z
" transform="scale(0.015625)"/>
      </defs>
      <use xlink:href="#id_017"/>
      <use xlink:href="#id_030" transform="translate(53.894531 0)"/>
      <use xlink:href="#id_032" transform="translate(115.076172 0)"/>
      <use xlink:href="#id_035" transform="translate(156.189453 0)"/>
      <use xlink:href="#id_020" transform="translate(237.976562 0)"/>
      <use xlink:href="#id_032" transform="translate(299.255859 0)"/>
      <use xlink:href="#id_022" transform="translate(338.619141 0)"/>
      <use xlink:href="#id_000" transform="translate(402.095703 0)"/>
      <use xlink:href="#id_033" transform="translate(433.882812 0)"/>
      <use xlink:href="#id_028" transform="translate(485.982422 0)"/>
      <use xlink:href="#id_020" transform="translate(513.765625 0)"/>
      <use xlink:href="#id_033" transform="translate(575.044922 0)"/>
      <use xlink:href="#id_025" transform="translate(627.144531 0)"/>
      <use xlink:href="#id_000" transform="translate(690.523438 0)"/>
      <use xlink:href="#id_002" transform="translate(722.310547 0)"/>
      <use xlink:href="#id_006" transform="translate(761.324219 0)"/>
      <use xlink:href="#id_003" transform="translate(795.015625 0)"/>
      <use xlink:href="#id_000" transform="translate(834.029297 0)"/>
      <use xlink:href="#id_032" transform="translate(865.816406 0)"/>
      <use xlink:href="#id_023" transform="translate(904.679688 0)"/>
      <use xlink:href="#id_024" transform="translate(966.203125 0)"/>
      <use xlink:href="#id_026" transform="translate(1029.679688 0)"/>
      <use xlink:href="#id_030" transform="translate(1057.462891 0)"/>
      <use xlink:href="#id_029" transform="translate(1118.644531 0)"/>
      <use xlink:href="#id_033" transform="translate(1182.023438 0)"/>
     </g>
    </g>
    <g id="id_134">
     <path d="M 429.874012 184.36
L 449.874012 184.36
L 449.874012 177.36
L 429.874012 177.36
z
" style="fill: #ee6666; stroke: #ee6666; stroke-linejoin: miter"/>
    </g>
    <g id="id_172">
     <!-- Backslash (\) regions -->
     <g transform="translate(457.874012 184.36) scale(0.1 -0.1)">
      <defs>
       <path id="id_016" d="M 1259 2228
L 1259 519
L 2272 519
Q 2781 519 3026 730
Q 3272 941 3272 1375
Q 3272 1813 3026 2020
Q 2781 2228 2272 2228
L 1259 2228
z
M 1259 4147
L 1259 2741
L 2194 2741
Q 2656 2741 2882 2914
Q 3109 3088 3109 3444
Q 3109 3797 2882 3972
Q 2656 4147 2194 4147
L 1259 4147
z
M 628 4666
L 2241 4666
Q 2963 4666 3353 4366
Q 3744 4066 3744 3513
Q 3744 3084 3544 2831
Q 3344 2578 2956 2516
Q 3422 2416 3680 2098
Q 3938 1781 3938 1306
Q 3938 681 3513 340
Q 3088 0 2303 0
L 628 0
L 628 4666
z
" transform="scale(0.015625)"/>
       <path id="id_019" d="M 531 4666
L 2156 -594
L 1625 -594
L 0 4666
L 531 4666
z
" transform="scale(0.015625)"/>
      </defs>
      <use xlink:href="#id_016"/>
      <use xlink:href="#id_020" transform="translate(68.603516 0)"/>
      <use xlink:href="#id_021" transform="translate(129.882812 0)"/>
      <use xlink:href="#id_027" transform="translate(184.863281 0)"/>
      <use xlink:href="#id_033" transform="translate(242.773438 0)"/>
      <use xlink:href="#id_028" transform="translate(294.873047 0)"/>
      <use xlink:href="#id_020" transform="translate(322.65625 0)"/>
      <use xlink:href="#id_033" transform="translate(383.935547 0)"/>
      <use xlink:href="#id_025" transform="translate(436.035156 0)"/>
      <use xlink:href="#id_000" transform="translate(499.414062 0)"/>
      <use xlink:href="#id_002" transform="translate(531.201172 0)"/>
      <use xlink:href="#id_019" transform="translate(570.214844 0)"/>
      <use xlink:href="#id_003" transform="translate(603.90625 0)"/>
      <use xlink:href="#id_000" transform="translate(642.919922 0)"/>
      <use xlink:href="#id_032" transform="translate(674.707031 0)"/>
      <use xlink:href="#id_023" transform="translate(713.570312 0)"/>
      <use xlink:href="#id_024" transform="translate(775.09375 0)"/>
      <use xlink:href="#id_026" transform="translate(838.570312 0)"/>
      <use xlink:href="#id_030" transform="translate(866.353516 0)"/>
      <use xlink:href="#id_029" transform="translate(927.535156 0)"/>
      <use xlink:href="#id_033" transform="translate(990.914062 0)"/>
     </g>
    </g>
    <g id="id_135">
     <path d="M 429.874012 199.038125
L 449.874012 199.038125
L 449.874012 192.038125
L 429.874012 192.038125
z
" style="fill: #88dd88; stroke: #88dd88; stroke-linejoin: miter"/>
    </g>
    <g id="id_173">
     <!-- V-pattern region -->
     <g transform="translate(457.874012 199.038125) scale(0.1 -0.1)">
      <defs>
       <path id="id_018" d="M 1831 0
L 50 4666
L 709 4666
L 2188 738
L 3669 4666
L 4325 4666
L 2547 0
L 1831 0
z
" transform="scale(0.015625)"/>
       <path id="id_004" d="M 313 2009
L 1997 2009
L 1997 1497
L 313 1497
L 313 2009
z
" transform="scale(0.015625)"/>
      </defs>
      <use xlink:href="#id_018"/>
      <use xlink:href="#id_004" transform="translate(62.533203 0)"/>
      <use xlink:href="#id_031" transform="translate(98.617188 0)"/>
      <use xlink:href="#id_020" transform="translate(162.09375 0)"/>
      <use xlink:href="#id_034" transform="translate(223.373047 0)"/>
      <use xlink:href="#id_034" transform="translate(262.582031 0)"/>
      <use xlink:href="#id_023" transform="translate(301.791016 0)"/>
      <use xlink:href="#id_032" transform="translate(363.314453 0)"/>
      <use xlink:href="#id_029" transform="translate(402.677734 0)"/>
      <use xlink:href="#id_000" transform="translate(466.056641 0)"/>
      <use xlink:href="#id_032" transform="translate(497.84375 0)"/>
      <use xlink:href="#id_023" transform="translate(536.707031 0)"/>
      <use xlink:href="#id_024" transform="translate(598.230469 0)"/>
      <use xlink:href="#id_026" transform="translate(661.707031 0)"/>
      <use xlink:href="#id_030" transform="translate(689.490234 0)"/>
      <use xlink:href="#id_029" transform="translate(750.671875 0)"/>
     </g>
    </g>
    <g id="id_117">
     <path d="M 429.874012 210.21625
L 439.874012 210.21625
L 449.874012 210.21625
" style="fill: none; stroke: #8598e1; stroke-opacity: 0.8; stroke-width: 2; stroke-linecap: square"/>
    </g>
    <g id="id_174">
     <!-- / interior edge -->
     <g transform="translate(457.874012 213.71625) scale(0.1 -0.1)">
      <use xlink:href="#id_006"/>
      <use xlink:href="#id_000" transform="translate(33.691406 0)"/>
      <use xlink:href="#id_026" transform="translate(65.478516 0)"/>
      <use xlink:href="#id_029" transform="translate(93.261719 0)"/>
      <use xlink:href="#id_034" transform="translate(156.640625 0)"/>
      <use xlink:href="#id_023" transform="translate(195.849609 0)"/>
      <use xlink:href="#id_032" transform="translate(257.373047 0)"/>
      <use xlink:href="#id_026" transform="translate(298.486328 0)"/>
      <use xlink:href="#id_030" transform="translate(326.269531 0)"/>
      <use xlink:href="#id_032" transform="translate(387.451172 0)"/>
      <use xlink:href="#id_000" transform="translate(428.564453 0)"/>
      <use xlink:href="#id_023" transform="translate(460.351562 0)"/>
      <use xlink:href="#id_022" transform="translate(521.875 0)"/>
      <use xlink:href="#id_024" transform="translate(585.351562 0)"/>
      <use xlink:href="#id_023" transform="translate(648.828125 0)"/>
     </g>
    </g>
    <g id="id_118">
     <path d="M 429.874012 224.894375
L 439.874012 224.894375
L 449.874012 224.894375
" style="fill: none; stroke: #ee6666; stroke-opacity: 0.8; stroke-width: 2; stroke-linecap: square"/>
    </g>
    <g id="id_175">
     <!-- \ interior edge -->
     <g transform="translate(457.874012 228.394375) scale(0.1 -0.1)">
      <use xlink:href="#id_019"/>
      <use xlink:href="#id_000" transform="translate(33.691406 0)"/>
      <use xlink:href="#id_026" transform="translate(65.478516 0)"/>
      <use xlink:href="#id_029" transform="translate(93.261719 0)"/>
      <use xlink:href="#id_034" transform="translate(156.640625 0)"/>
      <use xlink:href="#id_023" transform="translate(195.849609 0)"/>
      <use xlink:href="#id_032" transform="translate(257.373047 0)"/>
      <use xlink:href="#id_026" transform="translate(298.486328 0)"/>
      <use xlink:href="#id_030" transform="translate(326.269531 0)"/>
      <use xlink:href="#id_032" transform="translate(387.451172 0)"/>
      <use xlink:href="#id_000" transform="translate(428.564453 0)"/>
      <use xlink:href="#id_023" transform="translate(460.351562 0)"/>
      <use xlink:href="#id_022" transform="translate(521.875 0)"/>
      <use xlink:href="#id_024" transform="translate(585.351562 0)"/>
      <use xlink:href="#id_023" transform="translate(648.828125 0)"/>
     </g>
    </g>
    <g id="id_119">
     <path d="M 429.874012 239.5725
L 439.874012 239.5725
L 449.874012 239.5725
" style="fill: none; stroke: #88dd88; stroke-opacity: 0.8; stroke-width: 2; stroke-linecap: square"/>
    </g>
    <g id="id_176">
     <!-- V interior edges -->
     <g transform="translate(457.874012 243.0725) scale(0.1 -0.1)">
      <use xlink:href="#id_018"/>
      <use xlink:href="#id_000" transform="translate(68.408203 0)"/>
      <use xlink:href="#id_026" transform="translate(100.195312 0)"/>
      <use xlink:href="#id_029" transform="translate(127.978516 0)"/>
      <use xlink:href="#id_034" transform="translate(191.357422 0)"/>
      <use xlink:href="#id_023" transform="translate(230.566406 0)"/>
      <use xlink:href="#id_032" transform="translate(292.089844 0)"/>
      <use xlink:href="#id_026" transform="translate(333.203125 0)"/>
      <use xlink:href="#id_030" transform="translate(360.986328 0)"/>
      <use xlink:href="#id_032" transform="translate(422.167969 0)"/>
      <use xlink:href="#id_000" transform="translate(463.28125 0)"/>
      <use xlink:href="#id_023" transform="translate(495.068359 0)"/>
      <use xlink:href="#id_022" transform="translate(556.591797 0)"/>
      <use xlink:href="#id_024" transform="translate(620.068359 0)"/>
      <use xlink:href="#id_023" transform="translate(683.544922 0)"/>
      <use xlink:href="#id_033" transform="translate(745.068359 0)"/>
     </g>
    </g>
   </g>
  </g>
 </g>
 <defs>
  <clipPath id="id_127">
   <rect x="54.122813" y="23.837812" width="359.56" height="359.56"/>
  </clipPath>
 </defs>
</svg>
